<?xml version="1.0" encoding="UTF-8"?>
<!DOCTYPE svg PUBLIC "-//W3C//DTD SVG 1.1//EN" "http://www.w3.org/Graphics/SVG/1.1/DTD/svg11.dtd">
<!-- Creator: CorelDRAW X7 -->
<svg xmlns="http://www.w3.org/2000/svg" xml:space="preserve" width="108.964mm" height="22.2718mm" version="1.1" style="shape-rendering:geometricPrecision; text-rendering:geometricPrecision; image-rendering:optimizeQuality; fill-rule:evenodd; clip-rule:evenodd"
viewBox="0 0 12311 2516"
 xmlns:xlink="http://www.w3.org/1999/xlink">
 <defs>
  <style type="text/css">
   <![CDATA[
    .str0 {stroke:#2B5071;stroke-width:8.60953}
    .fil8 {fill:none;fill-rule:nonzero}
    .fil6 {fill:#2B5071}
    .fil2 {fill:#D63C29}
    .fil1 {fill:#E85929}
    .fil0 {fill:#EF7F1A}
    .fil3 {fill:#F4A529}
    .fil4 {fill:#F6B74F}
    .fil5 {fill:#F9CA78}
    .fil7 {fill:#2B5071;fill-rule:nonzero}
   ]]>
  </style>
 </defs>
 <g id="Layer_x0020_1">
  <metadata id="CorelCorpID_0Corel-Layer"/>
  <g id="_2252635439632">
   <g id="_1322667670736">
    <rect class="fil0" x="1131" y="38" width="335" height="335"/>
    <rect class="fil1" x="1500" y="38" width="335" height="335"/>
    <rect class="fil2" x="1871" y="38" width="335" height="335"/>
    <rect class="fil0" x="1131" y="408" width="335" height="335"/>
    <rect class="fil1" x="1500" y="408" width="335" height="335"/>
    <rect class="fil2" x="1871" y="408" width="335" height="335"/>
    <rect class="fil0" x="1131" y="779" width="335" height="335"/>
    <rect class="fil1" x="1500" y="779" width="335" height="335"/>
    <rect class="fil2" x="1871" y="779" width="335" height="335"/>
    <rect class="fil0" x="1131" y="1149" width="335" height="335"/>
    <rect class="fil1" x="1500" y="1149" width="335" height="335"/>
    <rect class="fil2" x="1871" y="1149" width="335" height="335"/>
    <rect class="fil3" x="753" y="38" width="335" height="335"/>
    <rect class="fil3" x="753" y="408" width="335" height="335"/>
    <rect class="fil3" x="753" y="779" width="335" height="335"/>
    <rect class="fil4" x="376" y="38" width="335" height="335"/>
    <rect class="fil4" x="376" y="408" width="335" height="335"/>
    <rect class="fil5" y="38" width="335" height="335"/>
    <path class="fil6" d="M2352 1478l0 -134 139 0 0 0 166 0c198,0 337,-14 414,-38 109,-36 195,-99 256,-190 63,-93 93,-206 93,-339 0,-139 -34,-258 -101,-357 -67,-99 -160,-166 -281,-202 -89,-28 -238,-42 -446,-42l-101 0 0 1057 -139 0 0 -1197 299 0c216,0 373,18 470,53 139,48 250,133 327,254 79,121 119,265 119,432 0,144 -32,273 -93,382 -64,109 -145,190 -244,244 -99,51 -240,77 -418,77l-460 0 0 0zm2085 -1442l671 1442 -154 0 -535 -1135 -250 521 375 0 65 141 -503 0 -226 473 -161 0 682 -1442 36 0zm753 140l0 -140 790 0 0 140 -321 0 0 1302 -148 0 0 -1302 -321 0 0 0zm1587 -140l672 1442 -155 0 -176 -370 -113 -244 0 0 -4 -8 -60 -127 -2 0 -180 -386 -248 521 373 0 63 141 -501 0 -226 473 -160 0 681 -1442 36 0zm2287 243l-111 105c-82,-79 -169,-138 -264,-180 -97,-40 -190,-61 -281,-61 -113,0 -220,27 -323,83 -101,55 -181,131 -238,226 -56,95 -83,196 -83,303 0,107 27,210 87,309 57,97 139,174 240,230 103,55 216,83 339,83 148,0 273,-41 376,-125 103,-83 162,-192 182,-325l-459 0 0 -140 620 0c0,224 -68,400 -198,531 -131,133 -305,198 -525,198 -268,0 -478,-91 -635,-274 -118,-140 -180,-301 -180,-485 0,-137 36,-264 103,-381 70,-118 165,-210 284,-277 118,-65 255,-99 406,-99 121,0 238,22 345,65 109,46 214,115 315,214l0 0zm368 -243l288 0c160,0 267,8 324,19 86,20 157,62 211,127 53,64 79,143 79,238 0,77 -18,147 -56,206 -35,60 -89,105 -158,135 -68,32 -163,46 -284,47l520 670 -181 0 -517 -670 -81 0 0 670 -145 0 0 -1442 0 0zm145 142l0 490 248 2c95,0 166,-10 212,-28 47,-18 83,-48 109,-87 25,-40 37,-85 37,-135 0,-49 -12,-93 -37,-133 -26,-39 -62,-67 -103,-85 -44,-16 -113,-24 -213,-24l-253 0 0 0zm1046 -142l145 0 0 1442 -145 0 0 -1442zm474 1442l0 -134 138 0 0 0 167 0c200,0 337,-14 414,-38 109,-36 194,-99 258,-190 61,-93 93,-206 93,-339 0,-139 -34,-258 -101,-357 -68,-99 -163,-166 -282,-202 -91,-28 -239,-42 -448,-42l-101 0 0 1057 -138 0 0 -1197 299 0c216,0 372,18 470,53 140,48 249,133 328,254 80,121 117,265 117,432 0,144 -29,273 -93,382 -61,109 -142,190 -243,244 -100,51 -238,77 -419,77l-459 0 0 0z"/>
   </g>
   <path class="fil7" d="M1136 2239l-172 0 86 -225 86 225zm97 146l-158 -409 -44 0 -163 409 38 0 43 -110 200 0 44 110 40 0z"/>
   <path id="1" class="fil7" d="M1506 2385l0 -205c0,-40 -9,-71 -26,-93 -16,-22 -41,-33 -73,-33 -24,0 -43,5 -60,15 -16,10 -29,26 -38,48l0 -56 -32 0 0 324 36 0 0 -182c0,-18 2,-34 6,-48 4,-15 10,-27 17,-38 8,-10 17,-18 28,-23 11,-6 23,-9 37,-9 21,0 38,9 50,26 12,17 19,39 19,67l0 207 36 0z"/>
   <polygon id="2" class="fil7" points="1761,2385 1761,1976 1722,1976 1722,2385 "/>
   <path id="3" class="fil7" d="M2045 2282c0,-29 -7,-53 -22,-70 -14,-18 -36,-34 -66,-49 -32,-16 -55,-31 -71,-45 -16,-14 -23,-28 -23,-44 0,-21 7,-38 23,-51 15,-13 35,-19 60,-19 20,0 37,1 48,5 11,3 20,7 27,11l7 -35c-22,-11 -49,-17 -82,-17 -17,0 -33,3 -48,8 -15,6 -28,13 -39,22 -11,9 -20,20 -26,33 -7,13 -10,26 -10,41 0,15 3,29 10,41 6,12 14,23 24,33 10,9 22,18 34,26 13,8 26,15 40,22 13,6 24,13 34,19 10,6 17,13 23,19 7,7 11,14 14,22 3,7 4,16 4,25 0,12 -2,22 -6,32 -5,9 -11,17 -19,24 -8,7 -18,13 -29,16 -11,4 -23,6 -36,6 -10,0 -20,-1 -29,-2 -9,-2 -18,-4 -26,-6 -7,-3 -14,-6 -20,-9 -6,-3 -10,-6 -13,-9l-4 42c25,13 56,19 93,19 18,0 35,-2 51,-8 15,-6 28,-14 40,-23 11,-10 20,-22 27,-36 7,-13 10,-28 10,-43z"/>
   <path id="4" class="fil7" d="M2422 2181c0,26 -4,49 -10,71 -7,22 -17,40 -29,56 -12,15 -26,27 -43,36 -16,9 -35,13 -56,13 -20,0 -39,-4 -56,-13 -17,-9 -31,-21 -43,-36 -12,-16 -21,-34 -28,-56 -7,-22 -10,-45 -10,-71 0,-26 3,-50 10,-71 7,-22 16,-41 28,-57 12,-15 26,-27 43,-36 17,-9 36,-13 56,-13 21,0 40,4 56,13 17,9 31,21 43,36 12,16 22,35 29,57 6,21 10,45 10,71zm39 0c0,-33 -4,-62 -12,-88 -9,-26 -20,-49 -35,-67 -15,-18 -34,-33 -56,-43 -22,-10 -46,-15 -74,-15 -27,0 -52,5 -74,15 -22,10 -40,25 -55,43 -15,18 -27,41 -35,67 -8,26 -13,55 -13,88 0,32 5,61 13,87 8,26 20,49 35,67 15,18 33,33 55,43 22,9 47,14 74,14 28,0 52,-5 74,-14 22,-10 41,-25 56,-43 15,-18 26,-41 35,-67 8,-26 12,-55 12,-87z"/>
   <path id="5" class="fil7" d="M2645 2103c0,41 11,74 33,97 22,23 52,35 91,35 21,0 39,-5 56,-14 16,-9 29,-22 39,-38l0 1c0,45 -10,83 -28,113 -23,39 -59,58 -107,58 -16,0 -30,-2 -42,-5 -12,-3 -20,-5 -23,-7l-3 37c2,1 6,2 11,3 5,1 10,2 16,3 5,1 12,2 18,3 7,1 14,1 22,1 57,-2 101,-22 131,-60 30,-37 45,-94 45,-170 0,-34 -3,-62 -9,-86 -5,-24 -14,-43 -25,-59 -11,-15 -25,-26 -41,-33 -16,-7 -34,-11 -54,-11 -20,0 -37,4 -53,10 -16,7 -29,16 -41,27 -11,12 -20,25 -26,41 -7,16 -10,34 -10,54zm216 15c-5,29 -16,49 -31,61 -18,14 -38,21 -61,21 -28,0 -49,-9 -63,-26 -14,-17 -21,-41 -21,-71 0,-15 2,-28 6,-40 4,-12 10,-22 18,-30 8,-9 17,-15 28,-20 10,-4 22,-6 36,-6 30,0 52,11 67,32 10,16 17,43 21,79z"/>
   <path id="6" class="fil7" d="M3225 2182l0 -2c0,-33 -2,-62 -8,-88 -5,-26 -14,-47 -25,-65 -10,-18 -24,-32 -40,-42 -16,-9 -35,-14 -57,-14 -22,0 -41,5 -57,14 -17,10 -30,24 -41,42 -11,18 -19,39 -25,65 -5,26 -8,55 -8,88l0 2c0,32 3,61 8,87 5,26 13,47 24,65 11,18 25,32 41,41 17,10 36,15 57,15 22,0 41,-5 58,-15 16,-9 30,-23 40,-41 11,-18 20,-39 25,-65 6,-26 8,-55 8,-87zm-39 0c0,55 -7,97 -22,127 -14,30 -37,45 -69,45 -33,0 -56,-15 -70,-45 -15,-29 -22,-72 -22,-127l0 -2c0,-56 7,-98 22,-128 14,-30 37,-45 69,-45 32,0 56,15 70,45 15,30 22,72 22,128l0 2z"/>
   <path id="7" class="fil7" d="M3543 2182l0 -2c0,-33 -2,-62 -8,-88 -5,-26 -14,-47 -24,-65 -11,-18 -25,-32 -41,-42 -16,-9 -35,-14 -57,-14 -22,0 -41,5 -57,14 -17,10 -30,24 -41,42 -11,18 -19,39 -25,65 -5,26 -8,55 -8,88l0 2c0,32 3,61 8,87 5,26 13,47 24,65 11,18 25,32 41,41 17,10 36,15 57,15 22,0 41,-5 58,-15 16,-9 30,-23 41,-41 10,-18 19,-39 24,-65 6,-26 8,-55 8,-87zm-39 0c0,55 -7,97 -22,127 -14,30 -37,45 -69,45 -32,0 -56,-15 -70,-45 -14,-29 -22,-72 -22,-127l0 -2c0,-56 8,-98 22,-128 14,-30 37,-45 69,-45 32,0 56,15 70,45 15,30 22,72 22,128l0 2z"/>
   <polygon id="8" class="fil7" points="3714,2385 3713,1976 3678,1976 3587,2051 3609,2078 3674,2021 3674,2385 "/>
   <path id="9" class="fil7" d="M4311 2160l-32 0c-1,8 -2,16 -3,25 0,8 -2,17 -4,25 -2,9 -4,18 -7,28 -3,10 -7,21 -12,32 -3,5 -6,9 -9,13l-107 -119c10,-4 20,-9 30,-15 10,-6 20,-13 31,-20 24,-18 36,-44 36,-78 0,-13 -3,-25 -8,-35 -5,-10 -12,-19 -21,-26 -8,-7 -19,-12 -30,-16 -11,-4 -23,-6 -36,-6 -14,0 -28,3 -41,7 -13,5 -24,11 -34,19 -9,8 -17,17 -23,28 -5,11 -8,23 -8,36 0,9 2,18 5,27 3,10 7,18 12,27 5,8 10,16 16,24 6,8 12,15 18,21l1 2c-31,12 -55,27 -70,46 -16,19 -24,45 -24,76 0,14 3,28 8,41 6,13 14,25 25,36 11,10 24,19 39,25 16,6 34,9 54,9 35,0 63,-7 87,-21 5,-4 12,-8 18,-14 7,-6 14,-13 22,-21l43 49 49 0 -69 -77c0,-1 1,-2 2,-4 1,-1 2,-3 4,-5 6,-9 11,-20 16,-31 4,-11 8,-23 12,-35 3,-13 5,-25 7,-37 2,-13 3,-25 3,-36zm-193 -16l-1 -1c-14,-15 -25,-28 -33,-41 -8,-13 -12,-27 -12,-43 0,-9 2,-17 5,-25 4,-7 8,-13 14,-18 6,-5 13,-9 20,-12 8,-2 15,-4 23,-4 19,0 33,5 44,14 11,10 16,24 16,44 0,22 -8,40 -23,53 -14,12 -31,23 -53,33zm-12 38l115 130c-5,5 -9,9 -14,13 -4,4 -9,7 -13,11 -22,16 -48,25 -76,25 -12,0 -23,-2 -33,-7 -11,-4 -20,-10 -28,-18 -8,-7 -15,-16 -20,-27 -4,-10 -7,-22 -7,-34 0,-20 8,-38 22,-56 14,-16 32,-28 54,-37z"/>
   <polygon id="10" class="fil7" points="4555,2385 4555,1976 4516,1976 4516,2385 "/>
   <path id="11" class="fil7" d="M4839 2282c0,-29 -7,-53 -21,-70 -15,-18 -37,-34 -67,-49 -31,-16 -55,-31 -71,-45 -15,-14 -23,-28 -23,-44 0,-21 8,-38 23,-51 15,-13 35,-19 60,-19 21,0 37,1 48,5 11,3 20,7 27,11l7 -35c-22,-11 -49,-17 -82,-17 -17,0 -33,3 -48,8 -15,6 -28,13 -39,22 -11,9 -20,20 -26,33 -7,13 -10,26 -10,41 0,15 3,29 10,41 6,12 14,23 24,33 10,9 22,18 35,26 12,8 25,15 39,22 13,6 25,13 34,19 10,6 18,13 24,19 6,7 10,14 13,22 3,7 4,16 4,25 0,12 -2,22 -6,32 -5,9 -11,17 -19,24 -8,7 -17,13 -28,16 -11,4 -23,6 -36,6 -11,0 -21,-1 -30,-2 -9,-2 -18,-4 -25,-6 -8,-3 -15,-6 -21,-9 -6,-3 -10,-6 -13,-9l-4 42c25,13 56,19 94,19 18,0 34,-2 50,-8 15,-6 29,-14 40,-23 12,-10 21,-22 27,-36 7,-13 10,-28 10,-43z"/>
   <path id="12" class="fil7" d="M5216 2181c0,26 -4,49 -10,71 -7,22 -16,40 -28,56 -12,15 -27,27 -44,36 -16,9 -35,13 -56,13 -20,0 -39,-4 -56,-13 -16,-9 -31,-21 -43,-36 -12,-16 -21,-34 -28,-56 -7,-22 -10,-45 -10,-71 0,-26 3,-50 10,-71 7,-22 16,-41 28,-57 12,-15 27,-27 43,-36 17,-9 36,-13 56,-13 21,0 40,4 56,13 17,9 32,21 44,36 12,16 21,35 28,57 6,21 10,45 10,71zm39 0c0,-33 -4,-62 -12,-88 -8,-26 -20,-49 -35,-67 -15,-18 -34,-33 -56,-43 -21,-10 -46,-15 -74,-15 -27,0 -52,5 -74,15 -22,10 -40,25 -55,43 -15,18 -27,41 -35,67 -8,26 -12,55 -12,88 0,32 4,61 12,87 8,26 20,49 35,67 15,18 33,33 55,43 22,9 47,14 74,14 28,0 53,-5 74,-14 22,-10 41,-25 56,-43 15,-18 27,-41 35,-67 8,-26 12,-55 12,-87z"/>
   <path id="13" class="fil7" d="M5440 2385l241 0 0 -35 -192 0 109 -123c5,-6 12,-15 20,-25 9,-11 17,-23 25,-37 8,-14 15,-28 21,-44 5,-15 8,-30 8,-45 0,-16 -3,-30 -8,-43 -6,-13 -13,-24 -23,-33 -11,-9 -23,-16 -37,-21 -14,-5 -30,-8 -48,-8 -10,0 -21,2 -32,4 -11,3 -21,6 -31,9 -10,3 -18,7 -25,10 -7,3 -12,6 -13,7l7 37c3,-2 7,-5 13,-9 6,-3 13,-6 21,-10 9,-3 19,-6 29,-9 11,-2 22,-3 33,-3 10,0 20,1 28,5 9,4 16,9 22,16 7,6 12,14 15,23 4,9 6,18 6,29 0,10 -2,21 -6,32 -4,11 -8,22 -14,32 -5,10 -11,20 -18,29 -6,9 -12,17 -17,22 -21,27 -43,53 -66,78 -22,26 -45,51 -68,77l0 35z"/>
   <polygon id="14" class="fil7" points="5962,1976 5719,1976 5719,2011 5923,2011 5764,2385 5807,2385 5962,2011 "/>
   <path id="15" class="fil7" d="M6253 2182l0 -2c0,-33 -3,-62 -8,-88 -6,-26 -14,-47 -25,-65 -11,-18 -24,-32 -41,-42 -16,-9 -35,-14 -56,-14 -22,0 -41,5 -58,14 -16,10 -30,24 -41,42 -10,18 -19,39 -24,65 -6,26 -9,55 -9,88l0 2c0,32 3,61 9,87 5,26 13,47 24,65 11,18 24,32 41,41 16,10 35,15 57,15 22,0 41,-5 57,-15 17,-9 30,-23 41,-41 11,-18 19,-39 25,-65 5,-26 8,-55 8,-87zm-40 0c0,55 -7,97 -21,127 -15,30 -38,45 -69,45 -33,0 -56,-15 -71,-45 -14,-29 -21,-72 -21,-127l0 -2c0,-56 7,-98 21,-128 15,-30 38,-45 70,-45 32,0 55,15 70,45 14,30 21,72 21,128l0 2z"/>
   <path id="16" class="fil7" d="M6571 2182l0 -2c0,-33 -3,-62 -8,-88 -6,-26 -14,-47 -25,-65 -11,-18 -24,-32 -40,-42 -17,-9 -36,-14 -57,-14 -22,0 -41,5 -58,14 -16,10 -30,24 -40,42 -11,18 -20,39 -25,65 -6,26 -8,55 -8,88l0 2c0,32 2,61 8,87 5,26 13,47 24,65 11,18 24,32 41,41 16,10 35,15 57,15 22,0 41,-5 57,-15 17,-9 30,-23 41,-41 11,-18 19,-39 25,-65 5,-26 8,-55 8,-87zm-39 0c0,55 -8,97 -22,127 -15,30 -38,45 -69,45 -33,0 -56,-15 -70,-45 -15,-29 -22,-72 -22,-127l0 -2c0,-56 7,-98 22,-128 14,-30 37,-45 69,-45 32,0 55,15 70,45 14,30 22,72 22,128l0 2z"/>
   <polygon id="17" class="fil7" points="6742,2385 6741,1976 6706,1976 6615,2051 6637,2078 6702,2021 6702,2385 "/>
   <path id="18" class="fil7" d="M7061 2181c0,-27 4,-52 12,-73 7,-22 18,-41 32,-56 15,-15 31,-27 51,-36 20,-8 42,-12 67,-12 16,0 32,1 48,4 15,3 29,8 42,14l4 -37c-11,-5 -25,-9 -41,-12 -16,-3 -34,-5 -54,-5 -30,0 -57,6 -82,16 -25,10 -46,24 -63,43 -17,19 -31,41 -41,67 -9,26 -14,55 -14,87 0,32 5,61 14,87 10,26 23,49 41,67 17,18 38,33 63,43 25,9 52,14 83,14 19,0 36,-1 51,-4 16,-3 30,-8 43,-15l-3 -34c-10,7 -24,11 -40,14 -17,3 -34,4 -51,4 -25,0 -47,-4 -67,-12 -20,-8 -37,-20 -51,-36 -14,-15 -25,-34 -32,-55 -8,-22 -12,-46 -12,-73z"/>
   <path id="19" class="fil7" d="M7416 2232l1 -30 137 0c-1,-36 -7,-65 -20,-85 -13,-21 -30,-31 -53,-31 -28,0 -50,12 -67,38 -13,20 -20,46 -23,78l0 32c2,38 10,68 26,90 17,24 42,37 74,37 8,0 16,-2 25,-4 9,-3 17,-6 25,-10 7,-4 13,-8 19,-12 5,-4 9,-7 11,-10l18 25c-4,4 -10,9 -18,13 -8,5 -17,10 -27,14 -10,5 -20,8 -30,11 -11,3 -20,4 -29,4 -44,0 -77,-14 -99,-43 -22,-29 -33,-71 -33,-126 0,-24 3,-47 9,-67 6,-21 14,-38 25,-54 11,-15 23,-26 38,-35 15,-9 31,-13 49,-13 40,0 70,15 91,43 21,29 30,70 28,122l0 15 -177 -2z"/>
   <path id="20" class="fil7" d="M7698 2385l0 -160c0,-20 2,-38 5,-54 3,-16 8,-30 14,-42 6,-11 14,-20 23,-27 9,-6 19,-9 30,-9l27 7 18 -36 -41 -10c-16,0 -31,6 -46,17 -14,11 -25,29 -33,53l0 -63 -33 0 0 324 36 0z"/>
   <path id="21" class="fil7" d="M7922 2316l0 -223 67 0 0 -32 -67 0 0 -85 -36 12 0 73 -57 0 0 32 57 0 0 211c0,32 5,55 14,68 10,14 27,20 51,20 10,0 19,-1 27,-3 9,-2 14,-4 16,-5l-1 -30c-3,2 -7,3 -12,5 -5,2 -12,2 -20,2 -12,0 -21,-4 -28,-11 -7,-8 -11,-19 -11,-34z"/>
   <path id="22" class="fil7" d="M8053 1982l37 0 0 -50 -37 0 0 50zm36 403l0 -324 -36 0 0 324 36 0z"/>
   <path id="23" class="fil7" d="M8241 2385l0 -292 66 0 0 -32 -66 0 0 -24c0,-21 3,-37 9,-49 7,-12 19,-18 36,-18 7,0 13,1 17,2 4,2 8,3 11,5l20 -20c-1,-1 -4,-2 -7,-4 -4,-2 -8,-4 -13,-6 -5,-2 -10,-4 -15,-6 -6,-2 -10,-2 -15,-2 -28,0 -48,8 -60,25 -13,17 -19,44 -19,80l0 17 -59 0 0 32 59 0 0 292 36 0z"/>
   <path id="24" class="fil7" d="M8371 1982l37 0 0 -50 -37 0 0 50zm35 403l0 -324 -35 0 0 324 35 0z"/>
   <path id="25" class="fil7" d="M8540 2232l0 -30 138 0c-1,-36 -8,-65 -20,-85 -13,-21 -31,-31 -54,-31 -27,0 -49,12 -66,38 -13,20 -21,46 -23,78l0 32c1,38 10,68 25,90 18,24 43,37 75,37 8,0 16,-2 25,-4 9,-3 17,-6 24,-10 8,-4 14,-8 20,-12 5,-4 9,-7 11,-10l17 25c-3,4 -9,9 -17,13 -8,5 -17,10 -27,14 -10,5 -20,8 -31,11 -10,3 -20,4 -28,4 -44,0 -77,-14 -99,-43 -23,-29 -34,-71 -34,-126 0,-24 3,-47 9,-67 6,-21 15,-38 26,-54 10,-15 23,-26 38,-35 15,-9 31,-13 48,-13 41,0 71,15 92,43 21,29 30,70 28,122l-1 15 -176 -2z"/>
   <path id="26" class="fil7" d="M8983 2336l0 49 36 0 0 -439 -36 0 0 168c-7,-12 -14,-22 -21,-30 -8,-8 -16,-14 -24,-18 -8,-5 -16,-8 -24,-10 -9,-1 -18,-2 -26,-2 -19,0 -36,4 -51,12 -15,8 -27,19 -37,33 -10,15 -18,32 -23,53 -5,21 -8,45 -8,71 0,26 3,50 8,71 6,21 14,38 24,53 11,15 24,26 39,34 15,8 33,11 52,11 17,0 34,-3 50,-11 16,-8 30,-23 41,-45zm0 -113c0,20 -3,38 -7,55 -4,17 -10,32 -17,44 -8,12 -17,22 -28,29 -11,6 -22,10 -35,10 -29,0 -51,-13 -65,-37 -15,-25 -22,-58 -22,-101 0,-43 7,-76 21,-101 14,-24 35,-36 62,-36 13,0 26,3 37,9 11,7 20,16 28,28 8,12 15,27 19,44 4,16 7,35 7,56z"/>
   <path id="27" class="fil7" d="M9259 2181c0,-27 4,-52 11,-73 8,-22 19,-41 33,-56 14,-15 31,-27 51,-36 20,-8 42,-12 66,-12 17,0 33,1 48,4 16,3 30,8 43,14l4 -37c-11,-5 -25,-9 -41,-12 -16,-3 -34,-5 -55,-5 -30,0 -57,6 -82,16 -24,10 -45,24 -62,43 -18,19 -31,41 -41,67 -10,26 -15,55 -15,87 0,32 5,61 15,87 9,26 23,49 40,67 17,18 38,33 63,43 25,9 53,14 84,14 18,0 35,-1 51,-4 16,-3 30,-8 43,-15l-4 -34c-10,7 -23,11 -40,14 -16,3 -33,4 -51,4 -25,0 -47,-4 -67,-12 -20,-8 -37,-20 -51,-36 -14,-15 -25,-34 -32,-55 -7,-22 -11,-46 -11,-73z"/>
   <path id="28" class="fil7" d="M9820 2223c0,-25 -4,-48 -10,-69 -7,-21 -16,-39 -28,-53 -12,-15 -26,-26 -43,-35 -17,-8 -36,-12 -56,-12 -21,0 -40,4 -57,12 -17,9 -31,20 -43,35 -12,14 -21,32 -27,53 -7,21 -10,44 -10,69 0,25 3,48 10,69 6,21 15,39 27,54 12,14 26,26 43,34 17,8 36,12 57,12 20,0 39,-4 56,-12 17,-8 31,-20 43,-34 12,-15 21,-33 28,-54 6,-21 10,-44 10,-69zm-40 0c0,20 -2,39 -7,56 -4,17 -11,32 -20,44 -8,12 -18,21 -30,28 -12,6 -25,10 -40,10 -15,0 -28,-4 -40,-10 -12,-7 -22,-16 -31,-28 -8,-12 -15,-27 -20,-44 -4,-17 -6,-36 -6,-56 0,-20 2,-38 6,-55 5,-17 12,-31 20,-44 9,-12 19,-21 31,-28 12,-7 25,-10 40,-10 15,0 28,3 40,10 12,7 22,16 30,28 9,13 16,27 20,44 5,17 7,35 7,55z"/>
   <path id="29" class="fil7" d="M10279 2385l0 -205c0,-40 -7,-71 -23,-93 -16,-22 -39,-33 -70,-33 -25,0 -45,6 -60,18 -16,12 -27,28 -35,48 -3,-22 -12,-39 -27,-49 -14,-11 -31,-17 -51,-17 -22,0 -42,5 -57,15 -15,10 -28,26 -36,48l0 -56 -33 0 0 324 36 0 0 -182c0,-36 7,-64 21,-86 14,-21 34,-32 60,-32 19,0 34,9 45,25 11,17 17,40 17,68l0 207 36 0 0 -182c0,-36 7,-64 21,-86 14,-21 34,-32 59,-32 20,0 35,9 45,25 11,17 16,40 16,68l0 207 36 0z"/>
   <path id="30" class="fil7" d="M10378 2336c10,20 23,35 40,44 17,8 34,12 52,12 19,0 37,-4 52,-12 15,-8 28,-19 39,-34 10,-14 18,-32 24,-53 5,-21 8,-44 8,-70 0,-54 -10,-96 -31,-125 -20,-29 -51,-44 -92,-44 -17,0 -34,4 -50,13 -16,9 -31,25 -45,49l0 -55 -33 0 0 448 36 0 0 -173zm0 -113c0,-20 3,-39 7,-56 4,-17 10,-31 18,-43 8,-12 17,-22 28,-28 11,-7 22,-10 35,-10 14,0 26,3 37,9 11,7 20,16 27,28 8,12 14,27 18,44 4,16 6,35 6,56 0,43 -8,76 -23,101 -15,24 -36,37 -65,37 -13,0 -25,-4 -36,-10 -11,-7 -20,-17 -28,-29 -7,-12 -13,-26 -17,-43 -4,-17 -7,-35 -7,-55l0 -1z"/>
   <path id="31" class="fil7" d="M10802 2221c1,0 1,-1 1,-4 0,-4 0,-7 0,-11 0,-4 0,-8 0,-11 -1,-4 -1,-5 -1,-5l-4 0c-50,0 -88,9 -115,27 -26,19 -39,45 -39,80 0,28 8,51 25,69 16,18 40,27 69,27 17,0 34,-4 51,-12 17,-7 32,-22 45,-43l0 47 32 0c0,0 1,-1 1,-4 0,-2 0,-5 0,-10 0,-4 -1,-10 -1,-15 0,-6 0,-13 0,-19l0 -176c0,-35 -8,-62 -25,-80 -17,-18 -43,-27 -76,-27 -11,0 -21,1 -32,4 -11,3 -20,6 -29,10 -9,3 -17,7 -24,10 -6,4 -11,7 -13,8l11 25c12,-8 25,-14 40,-18 16,-5 30,-7 45,-7 22,0 38,6 50,18 12,12 17,31 17,57l0 29 0 38 0 28c0,31 -7,56 -21,76 -14,19 -36,29 -64,29 -22,0 -37,-6 -47,-17 -10,-12 -15,-27 -15,-47 0,-24 10,-42 30,-55 19,-13 49,-20 89,-21z"/>
   <path id="32" class="fil7" d="M11162 2385l0 -205c0,-40 -9,-71 -26,-93 -16,-22 -41,-33 -73,-33 -24,0 -43,5 -60,15 -16,10 -28,26 -38,48l0 -56 -32 0 0 324 36 0 0 -182c0,-18 2,-34 6,-48 4,-15 10,-27 17,-38 8,-10 17,-18 28,-23 11,-6 23,-9 37,-9 21,0 38,9 50,26 12,17 19,39 19,67l0 207 36 0z"/>
   <path id="33" class="fil7" d="M11405 2061l-86 272 -83 -272 -38 0 103 321 -11 43c-4,18 -10,32 -18,41 -8,10 -19,15 -31,15l-26 -5 -3 31c3,1 8,2 15,3 6,2 14,2 23,2 9,0 18,-2 26,-7 8,-5 15,-11 21,-19 6,-8 11,-17 16,-27 4,-9 8,-19 12,-30l119 -368 -39 0z"/>
   <path id="34" class="fil8 str0" d="M1136 2239l-172 0 86 -225 86 225zm97 146l-158 -409 -44 0 -163 409 38 0 43 -110 200 0 44 110 40 0z"/>
   <path id="35" class="fil8 str0" d="M1506 2385l0 -205c0,-40 -9,-71 -26,-93 -16,-22 -41,-33 -73,-33 -24,0 -43,5 -60,15 -16,10 -29,26 -38,48l0 -56 -32 0 0 324 36 0 0 -182c0,-18 2,-34 6,-48 4,-15 10,-27 17,-38 8,-10 17,-18 28,-23 11,-6 23,-9 37,-9 21,0 38,9 50,26 12,17 19,39 19,67l0 207 36 0z"/>
   <polygon id="36" class="fil8 str0" points="1761,2385 1761,1976 1722,1976 1722,2385 "/>
   <path id="37" class="fil8 str0" d="M2045 2282c0,-29 -7,-53 -22,-70 -14,-18 -36,-34 -66,-49 -32,-16 -55,-31 -71,-45 -16,-14 -23,-28 -23,-44 0,-21 7,-38 23,-51 15,-13 35,-19 60,-19 20,0 37,1 48,5 11,3 20,7 27,11l7 -35c-22,-11 -49,-17 -82,-17 -17,0 -33,3 -48,8 -15,6 -28,13 -39,22 -11,9 -20,20 -26,33 -7,13 -10,26 -10,41 0,15 3,29 10,41 6,12 14,23 24,33 10,9 22,18 34,26 13,8 26,15 40,22 13,6 24,13 34,19 10,6 17,13 23,19 7,7 11,14 14,22 3,7 4,16 4,25 0,12 -2,22 -6,32 -5,9 -11,17 -19,24 -8,7 -18,13 -29,16 -11,4 -23,6 -36,6 -10,0 -20,-1 -29,-2 -9,-2 -18,-4 -26,-6 -7,-3 -14,-6 -20,-9 -6,-3 -10,-6 -13,-9l-4 42c25,13 56,19 93,19 18,0 35,-2 51,-8 15,-6 28,-14 40,-23 11,-10 20,-22 27,-36 7,-13 10,-28 10,-43z"/>
   <path id="38" class="fil8 str0" d="M2422 2181c0,26 -4,49 -10,71 -7,22 -17,40 -29,56 -12,15 -26,27 -43,36 -16,9 -35,13 -56,13 -20,0 -39,-4 -56,-13 -17,-9 -31,-21 -43,-36 -12,-16 -21,-34 -28,-56 -7,-22 -10,-45 -10,-71 0,-26 3,-50 10,-71 7,-22 16,-41 28,-57 12,-15 26,-27 43,-36 17,-9 36,-13 56,-13 21,0 40,4 56,13 17,9 31,21 43,36 12,16 22,35 29,57 6,21 10,45 10,71zm39 0c0,-33 -4,-62 -12,-88 -9,-26 -20,-49 -35,-67 -15,-18 -34,-33 -56,-43 -22,-10 -46,-15 -74,-15 -27,0 -52,5 -74,15 -22,10 -40,25 -55,43 -15,18 -27,41 -35,67 -8,26 -13,55 -13,88 0,32 5,61 13,87 8,26 20,49 35,67 15,18 33,33 55,43 22,9 47,14 74,14 28,0 52,-5 74,-14 22,-10 41,-25 56,-43 15,-18 26,-41 35,-67 8,-26 12,-55 12,-87z"/>
   <path id="39" class="fil8 str0" d="M2645 2103c0,41 11,74 33,97 22,23 52,35 91,35 21,0 39,-5 56,-14 16,-9 29,-22 39,-38l0 1c0,45 -10,83 -28,113 -23,39 -59,58 -107,58 -16,0 -30,-2 -42,-5 -12,-3 -20,-5 -23,-7l-3 37c2,1 6,2 11,3 5,1 10,2 16,3 5,1 12,2 18,3 7,1 14,1 22,1 57,-2 101,-22 131,-60 30,-37 45,-94 45,-170 0,-34 -3,-62 -9,-86 -5,-24 -14,-43 -25,-59 -11,-15 -25,-26 -41,-33 -16,-7 -34,-11 -54,-11 -20,0 -37,4 -53,10 -16,7 -29,16 -41,27 -11,12 -20,25 -26,41 -7,16 -10,34 -10,54zm216 15c-5,29 -16,49 -31,61 -18,14 -38,21 -61,21 -28,0 -49,-9 -63,-26 -14,-17 -21,-41 -21,-71 0,-15 2,-28 6,-40 4,-12 10,-22 18,-30 8,-9 17,-15 28,-20 10,-4 22,-6 36,-6 30,0 52,11 67,32 10,16 17,43 21,79z"/>
   <path id="40" class="fil8 str0" d="M3225 2182l0 -2c0,-33 -2,-62 -8,-88 -5,-26 -14,-47 -25,-65 -10,-18 -24,-32 -40,-42 -16,-9 -35,-14 -57,-14 -22,0 -41,5 -57,14 -17,10 -30,24 -41,42 -11,18 -19,39 -25,65 -5,26 -8,55 -8,88l0 2c0,32 3,61 8,87 5,26 13,47 24,65 11,18 25,32 41,41 17,10 36,15 57,15 22,0 41,-5 58,-15 16,-9 30,-23 40,-41 11,-18 20,-39 25,-65 6,-26 8,-55 8,-87zm-39 0c0,55 -7,97 -22,127 -14,30 -37,45 -69,45 -33,0 -56,-15 -70,-45 -15,-29 -22,-72 -22,-127l0 -2c0,-56 7,-98 22,-128 14,-30 37,-45 69,-45 32,0 56,15 70,45 15,30 22,72 22,128l0 2z"/>
   <path id="41" class="fil8 str0" d="M3543 2182l0 -2c0,-33 -2,-62 -8,-88 -5,-26 -14,-47 -24,-65 -11,-18 -25,-32 -41,-42 -16,-9 -35,-14 -57,-14 -22,0 -41,5 -57,14 -17,10 -30,24 -41,42 -11,18 -19,39 -25,65 -5,26 -8,55 -8,88l0 2c0,32 3,61 8,87 5,26 13,47 24,65 11,18 25,32 41,41 17,10 36,15 57,15 22,0 41,-5 58,-15 16,-9 30,-23 41,-41 10,-18 19,-39 24,-65 6,-26 8,-55 8,-87zm-39 0c0,55 -7,97 -22,127 -14,30 -37,45 -69,45 -32,0 -56,-15 -70,-45 -14,-29 -22,-72 -22,-127l0 -2c0,-56 8,-98 22,-128 14,-30 37,-45 69,-45 32,0 56,15 70,45 15,30 22,72 22,128l0 2z"/>
   <polygon id="42" class="fil8 str0" points="3714,2385 3713,1976 3678,1976 3587,2051 3609,2078 3674,2021 3674,2385 "/>
   <path id="43" class="fil8 str0" d="M4311 2160l-32 0c-1,8 -2,16 -3,25 0,8 -2,17 -4,25 -2,9 -4,18 -7,28 -3,10 -7,21 -12,32 -3,5 -6,9 -9,13l-107 -119c10,-4 20,-9 30,-15 10,-6 20,-13 31,-20 24,-18 36,-44 36,-78 0,-13 -3,-25 -8,-35 -5,-10 -12,-19 -21,-26 -8,-7 -19,-12 -30,-16 -11,-4 -23,-6 -36,-6 -14,0 -28,3 -41,7 -13,5 -24,11 -34,19 -9,8 -17,17 -23,28 -5,11 -8,23 -8,36 0,9 2,18 5,27 3,10 7,18 12,27 5,8 10,16 16,24 6,8 12,15 18,21l1 2c-31,12 -55,27 -70,46 -16,19 -24,45 -24,76 0,14 3,28 8,41 6,13 14,25 25,36 11,10 24,19 39,25 16,6 34,9 54,9 35,0 63,-7 87,-21 5,-4 12,-8 18,-14 7,-6 14,-13 22,-21l43 49 49 0 -69 -77c0,-1 1,-2 2,-4 1,-1 2,-3 4,-5 6,-9 11,-20 16,-31 4,-11 8,-23 12,-35 3,-13 5,-25 7,-37 2,-13 3,-25 3,-36zm-193 -16l-1 -1c-14,-15 -25,-28 -33,-41 -8,-13 -12,-27 -12,-43 0,-9 2,-17 5,-25 4,-7 8,-13 14,-18 6,-5 13,-9 20,-12 8,-2 15,-4 23,-4 19,0 33,5 44,14 11,10 16,24 16,44 0,22 -8,40 -23,53 -14,12 -31,23 -53,33zm-12 38l115 130c-5,5 -9,9 -14,13 -4,4 -9,7 -13,11 -22,16 -48,25 -76,25 -12,0 -23,-2 -33,-7 -11,-4 -20,-10 -28,-18 -8,-7 -15,-16 -20,-27 -4,-10 -7,-22 -7,-34 0,-20 8,-38 22,-56 14,-16 32,-28 54,-37z"/>
   <polygon id="44" class="fil8 str0" points="4555,2385 4555,1976 4516,1976 4516,2385 "/>
   <path id="45" class="fil8 str0" d="M4839 2282c0,-29 -7,-53 -21,-70 -15,-18 -37,-34 -67,-49 -31,-16 -55,-31 -71,-45 -15,-14 -23,-28 -23,-44 0,-21 8,-38 23,-51 15,-13 35,-19 60,-19 21,0 37,1 48,5 11,3 20,7 27,11l7 -35c-22,-11 -49,-17 -82,-17 -17,0 -33,3 -48,8 -15,6 -28,13 -39,22 -11,9 -20,20 -26,33 -7,13 -10,26 -10,41 0,15 3,29 10,41 6,12 14,23 24,33 10,9 22,18 35,26 12,8 25,15 39,22 13,6 25,13 34,19 10,6 18,13 24,19 6,7 10,14 13,22 3,7 4,16 4,25 0,12 -2,22 -6,32 -5,9 -11,17 -19,24 -8,7 -17,13 -28,16 -11,4 -23,6 -36,6 -11,0 -21,-1 -30,-2 -9,-2 -18,-4 -25,-6 -8,-3 -15,-6 -21,-9 -6,-3 -10,-6 -13,-9l-4 42c25,13 56,19 94,19 18,0 34,-2 50,-8 15,-6 29,-14 40,-23 12,-10 21,-22 27,-36 7,-13 10,-28 10,-43z"/>
   <path id="46" class="fil8 str0" d="M5216 2181c0,26 -4,49 -10,71 -7,22 -16,40 -28,56 -12,15 -27,27 -44,36 -16,9 -35,13 -56,13 -20,0 -39,-4 -56,-13 -16,-9 -31,-21 -43,-36 -12,-16 -21,-34 -28,-56 -7,-22 -10,-45 -10,-71 0,-26 3,-50 10,-71 7,-22 16,-41 28,-57 12,-15 27,-27 43,-36 17,-9 36,-13 56,-13 21,0 40,4 56,13 17,9 32,21 44,36 12,16 21,35 28,57 6,21 10,45 10,71zm39 0c0,-33 -4,-62 -12,-88 -8,-26 -20,-49 -35,-67 -15,-18 -34,-33 -56,-43 -21,-10 -46,-15 -74,-15 -27,0 -52,5 -74,15 -22,10 -40,25 -55,43 -15,18 -27,41 -35,67 -8,26 -12,55 -12,88 0,32 4,61 12,87 8,26 20,49 35,67 15,18 33,33 55,43 22,9 47,14 74,14 28,0 53,-5 74,-14 22,-10 41,-25 56,-43 15,-18 27,-41 35,-67 8,-26 12,-55 12,-87z"/>
   <path id="47" class="fil8 str0" d="M5440 2385l241 0 0 -35 -192 0 109 -123c5,-6 12,-15 20,-25 9,-11 17,-23 25,-37 8,-14 15,-28 21,-44 5,-15 8,-30 8,-45 0,-16 -3,-30 -8,-43 -6,-13 -13,-24 -23,-33 -11,-9 -23,-16 -37,-21 -14,-5 -30,-8 -48,-8 -10,0 -21,2 -32,4 -11,3 -21,6 -31,9 -10,3 -18,7 -25,10 -7,3 -12,6 -13,7l7 37c3,-2 7,-5 13,-9 6,-3 13,-6 21,-10 9,-3 19,-6 29,-9 11,-2 22,-3 33,-3 10,0 20,1 28,5 9,4 16,9 22,16 7,6 12,14 15,23 4,9 6,18 6,29 0,10 -2,21 -6,32 -4,11 -8,22 -14,32 -5,10 -11,20 -18,29 -6,9 -12,17 -17,22 -21,27 -43,53 -66,78 -22,26 -45,51 -68,77l0 35z"/>
   <polygon id="48" class="fil8 str0" points="5962,1976 5719,1976 5719,2011 5923,2011 5764,2385 5807,2385 5962,2011 "/>
   <path id="49" class="fil8 str0" d="M6253 2182l0 -2c0,-33 -3,-62 -8,-88 -6,-26 -14,-47 -25,-65 -11,-18 -24,-32 -41,-42 -16,-9 -35,-14 -56,-14 -22,0 -41,5 -58,14 -16,10 -30,24 -41,42 -10,18 -19,39 -24,65 -6,26 -9,55 -9,88l0 2c0,32 3,61 9,87 5,26 13,47 24,65 11,18 24,32 41,41 16,10 35,15 57,15 22,0 41,-5 57,-15 17,-9 30,-23 41,-41 11,-18 19,-39 25,-65 5,-26 8,-55 8,-87zm-40 0c0,55 -7,97 -21,127 -15,30 -38,45 -69,45 -33,0 -56,-15 -71,-45 -14,-29 -21,-72 -21,-127l0 -2c0,-56 7,-98 21,-128 15,-30 38,-45 70,-45 32,0 55,15 70,45 14,30 21,72 21,128l0 2z"/>
   <path id="50" class="fil8 str0" d="M6571 2182l0 -2c0,-33 -3,-62 -8,-88 -6,-26 -14,-47 -25,-65 -11,-18 -24,-32 -40,-42 -17,-9 -36,-14 -57,-14 -22,0 -41,5 -58,14 -16,10 -30,24 -40,42 -11,18 -20,39 -25,65 -6,26 -8,55 -8,88l0 2c0,32 2,61 8,87 5,26 13,47 24,65 11,18 24,32 41,41 16,10 35,15 57,15 22,0 41,-5 57,-15 17,-9 30,-23 41,-41 11,-18 19,-39 25,-65 5,-26 8,-55 8,-87zm-39 0c0,55 -8,97 -22,127 -15,30 -38,45 -69,45 -33,0 -56,-15 -70,-45 -15,-29 -22,-72 -22,-127l0 -2c0,-56 7,-98 22,-128 14,-30 37,-45 69,-45 32,0 55,15 70,45 14,30 22,72 22,128l0 2z"/>
   <polygon id="51" class="fil8 str0" points="6742,2385 6741,1976 6706,1976 6615,2051 6637,2078 6702,2021 6702,2385 "/>
   <path id="52" class="fil8 str0" d="M7061 2181c0,-27 4,-52 12,-73 7,-22 18,-41 32,-56 15,-15 31,-27 51,-36 20,-8 42,-12 67,-12 16,0 32,1 48,4 15,3 29,8 42,14l4 -37c-11,-5 -25,-9 -41,-12 -16,-3 -34,-5 -54,-5 -30,0 -57,6 -82,16 -25,10 -46,24 -63,43 -17,19 -31,41 -41,67 -9,26 -14,55 -14,87 0,32 5,61 14,87 10,26 23,49 41,67 17,18 38,33 63,43 25,9 52,14 83,14 19,0 36,-1 51,-4 16,-3 30,-8 43,-15l-3 -34c-10,7 -24,11 -40,14 -17,3 -34,4 -51,4 -25,0 -47,-4 -67,-12 -20,-8 -37,-20 -51,-36 -14,-15 -25,-34 -32,-55 -8,-22 -12,-46 -12,-73z"/>
   <path id="53" class="fil8 str0" d="M7416 2232l1 -30 137 0c-1,-36 -7,-65 -20,-85 -13,-21 -30,-31 -53,-31 -28,0 -50,12 -67,38 -13,20 -20,46 -23,78l0 32c2,38 10,68 26,90 17,24 42,37 74,37 8,0 16,-2 25,-4 9,-3 17,-6 25,-10 7,-4 13,-8 19,-12 5,-4 9,-7 11,-10l18 25c-4,4 -10,9 -18,13 -8,5 -17,10 -27,14 -10,5 -20,8 -30,11 -11,3 -20,4 -29,4 -44,0 -77,-14 -99,-43 -22,-29 -33,-71 -33,-126 0,-24 3,-47 9,-67 6,-21 14,-38 25,-54 11,-15 23,-26 38,-35 15,-9 31,-13 49,-13 40,0 70,15 91,43 21,29 30,70 28,122l0 15 -177 -2z"/>
   <path id="54" class="fil8 str0" d="M7698 2385l0 -160c0,-20 2,-38 5,-54 3,-16 8,-30 14,-42 6,-11 14,-20 23,-27 9,-6 19,-9 30,-9l27 7 18 -36 -41 -10c-16,0 -31,6 -46,17 -14,11 -25,29 -33,53l0 -63 -33 0 0 324 36 0z"/>
   <path id="55" class="fil8 str0" d="M7922 2316l0 -223 67 0 0 -32 -67 0 0 -85 -36 12 0 73 -57 0 0 32 57 0 0 211c0,32 5,55 14,68 10,14 27,20 51,20 10,0 19,-1 27,-3 9,-2 14,-4 16,-5l-1 -30c-3,2 -7,3 -12,5 -5,2 -12,2 -20,2 -12,0 -21,-4 -28,-11 -7,-8 -11,-19 -11,-34z"/>
   <path id="56" class="fil8 str0" d="M8053 1982l37 0 0 -50 -37 0 0 50zm36 403l0 -324 -36 0 0 324 36 0z"/>
   <path id="57" class="fil8 str0" d="M8241 2385l0 -292 66 0 0 -32 -66 0 0 -24c0,-21 3,-37 9,-49 7,-12 19,-18 36,-18 7,0 13,1 17,2 4,2 8,3 11,5l20 -20c-1,-1 -4,-2 -7,-4 -4,-2 -8,-4 -13,-6 -5,-2 -10,-4 -15,-6 -6,-2 -10,-2 -15,-2 -28,0 -48,8 -60,25 -13,17 -19,44 -19,80l0 17 -59 0 0 32 59 0 0 292 36 0z"/>
   <path id="58" class="fil8 str0" d="M8371 1982l37 0 0 -50 -37 0 0 50zm35 403l0 -324 -35 0 0 324 35 0z"/>
   <path id="59" class="fil8 str0" d="M8540 2232l0 -30 138 0c-1,-36 -8,-65 -20,-85 -13,-21 -31,-31 -54,-31 -27,0 -49,12 -66,38 -13,20 -21,46 -23,78l0 32c1,38 10,68 25,90 18,24 43,37 75,37 8,0 16,-2 25,-4 9,-3 17,-6 24,-10 8,-4 14,-8 20,-12 5,-4 9,-7 11,-10l17 25c-3,4 -9,9 -17,13 -8,5 -17,10 -27,14 -10,5 -20,8 -31,11 -10,3 -20,4 -28,4 -44,0 -77,-14 -99,-43 -23,-29 -34,-71 -34,-126 0,-24 3,-47 9,-67 6,-21 15,-38 26,-54 10,-15 23,-26 38,-35 15,-9 31,-13 48,-13 41,0 71,15 92,43 21,29 30,70 28,122l-1 15 -176 -2z"/>
   <path id="60" class="fil8 str0" d="M8983 2336l0 49 36 0 0 -439 -36 0 0 168c-7,-12 -14,-22 -21,-30 -8,-8 -16,-14 -24,-18 -8,-5 -16,-8 -24,-10 -9,-1 -18,-2 -26,-2 -19,0 -36,4 -51,12 -15,8 -27,19 -37,33 -10,15 -18,32 -23,53 -5,21 -8,45 -8,71 0,26 3,50 8,71 6,21 14,38 24,53 11,15 24,26 39,34 15,8 33,11 52,11 17,0 34,-3 50,-11 16,-8 30,-23 41,-45zm0 -113c0,20 -3,38 -7,55 -4,17 -10,32 -17,44 -8,12 -17,22 -28,29 -11,6 -22,10 -35,10 -29,0 -51,-13 -65,-37 -15,-25 -22,-58 -22,-101 0,-43 7,-76 21,-101 14,-24 35,-36 62,-36 13,0 26,3 37,9 11,7 20,16 28,28 8,12 15,27 19,44 4,16 7,35 7,56z"/>
   <path id="61" class="fil8 str0" d="M9259 2181c0,-27 4,-52 11,-73 8,-22 19,-41 33,-56 14,-15 31,-27 51,-36 20,-8 42,-12 66,-12 17,0 33,1 48,4 16,3 30,8 43,14l4 -37c-11,-5 -25,-9 -41,-12 -16,-3 -34,-5 -55,-5 -30,0 -57,6 -82,16 -24,10 -45,24 -62,43 -18,19 -31,41 -41,67 -10,26 -15,55 -15,87 0,32 5,61 15,87 9,26 23,49 40,67 17,18 38,33 63,43 25,9 53,14 84,14 18,0 35,-1 51,-4 16,-3 30,-8 43,-15l-4 -34c-10,7 -23,11 -40,14 -16,3 -33,4 -51,4 -25,0 -47,-4 -67,-12 -20,-8 -37,-20 -51,-36 -14,-15 -25,-34 -32,-55 -7,-22 -11,-46 -11,-73z"/>
   <path id="62" class="fil8 str0" d="M9820 2223c0,-25 -4,-48 -10,-69 -7,-21 -16,-39 -28,-53 -12,-15 -26,-26 -43,-35 -17,-8 -36,-12 -56,-12 -21,0 -40,4 -57,12 -17,9 -31,20 -43,35 -12,14 -21,32 -27,53 -7,21 -10,44 -10,69 0,25 3,48 10,69 6,21 15,39 27,54 12,14 26,26 43,34 17,8 36,12 57,12 20,0 39,-4 56,-12 17,-8 31,-20 43,-34 12,-15 21,-33 28,-54 6,-21 10,-44 10,-69zm-40 0c0,20 -2,39 -7,56 -4,17 -11,32 -20,44 -8,12 -18,21 -30,28 -12,6 -25,10 -40,10 -15,0 -28,-4 -40,-10 -12,-7 -22,-16 -31,-28 -8,-12 -15,-27 -20,-44 -4,-17 -6,-36 -6,-56 0,-20 2,-38 6,-55 5,-17 12,-31 20,-44 9,-12 19,-21 31,-28 12,-7 25,-10 40,-10 15,0 28,3 40,10 12,7 22,16 30,28 9,13 16,27 20,44 5,17 7,35 7,55z"/>
   <path id="63" class="fil8 str0" d="M10279 2385l0 -205c0,-40 -7,-71 -23,-93 -16,-22 -39,-33 -70,-33 -25,0 -45,6 -60,18 -16,12 -27,28 -35,48 -3,-22 -12,-39 -27,-49 -14,-11 -31,-17 -51,-17 -22,0 -42,5 -57,15 -15,10 -28,26 -36,48l0 -56 -33 0 0 324 36 0 0 -182c0,-36 7,-64 21,-86 14,-21 34,-32 60,-32 19,0 34,9 45,25 11,17 17,40 17,68l0 207 36 0 0 -182c0,-36 7,-64 21,-86 14,-21 34,-32 59,-32 20,0 35,9 45,25 11,17 16,40 16,68l0 207 36 0z"/>
   <path id="64" class="fil8 str0" d="M10378 2336c10,20 23,35 40,44 17,8 34,12 52,12 19,0 37,-4 52,-12 15,-8 28,-19 39,-34 10,-14 18,-32 24,-53 5,-21 8,-44 8,-70 0,-54 -10,-96 -31,-125 -20,-29 -51,-44 -92,-44 -17,0 -34,4 -50,13 -16,9 -31,25 -45,49l0 -55 -33 0 0 448 36 0 0 -173zm0 -113c0,-20 3,-39 7,-56 4,-17 10,-31 18,-43 8,-12 17,-22 28,-28 11,-7 22,-10 35,-10 14,0 26,3 37,9 11,7 20,16 27,28 8,12 14,27 18,44 4,16 6,35 6,56 0,43 -8,76 -23,101 -15,24 -36,37 -65,37 -13,0 -25,-4 -36,-10 -11,-7 -20,-17 -28,-29 -7,-12 -13,-26 -17,-43 -4,-17 -7,-35 -7,-55l0 -1z"/>
   <path id="65" class="fil8 str0" d="M10802 2221c1,0 1,-1 1,-4 0,-4 0,-7 0,-11 0,-4 0,-8 0,-11 -1,-4 -1,-5 -1,-5l-4 0c-50,0 -88,9 -115,27 -26,19 -39,45 -39,80 0,28 8,51 25,69 16,18 40,27 69,27 17,0 34,-4 51,-12 17,-7 32,-22 45,-43l0 47 32 0c0,0 1,-1 1,-4 0,-2 0,-5 0,-10 0,-4 -1,-10 -1,-15 0,-6 0,-13 0,-19l0 -176c0,-35 -8,-62 -25,-80 -17,-18 -43,-27 -76,-27 -11,0 -21,1 -32,4 -11,3 -20,6 -29,10 -9,3 -17,7 -24,10 -6,4 -11,7 -13,8l11 25c12,-8 25,-14 40,-18 16,-5 30,-7 45,-7 22,0 38,6 50,18 12,12 17,31 17,57l0 29 0 38 0 28c0,31 -7,56 -21,76 -14,19 -36,29 -64,29 -22,0 -37,-6 -47,-17 -10,-12 -15,-27 -15,-47 0,-24 10,-42 30,-55 19,-13 49,-20 89,-21z"/>
   <path id="66" class="fil8 str0" d="M11162 2385l0 -205c0,-40 -9,-71 -26,-93 -16,-22 -41,-33 -73,-33 -24,0 -43,5 -60,15 -16,10 -28,26 -38,48l0 -56 -32 0 0 324 36 0 0 -182c0,-18 2,-34 6,-48 4,-15 10,-27 17,-38 8,-10 17,-18 28,-23 11,-6 23,-9 37,-9 21,0 38,9 50,26 12,17 19,39 19,67l0 207 36 0z"/>
   <path id="67" class="fil8 str0" d="M11405 2061l-86 272 -83 -272 -38 0 103 321 -11 43c-4,18 -10,32 -18,41 -8,10 -19,15 -31,15l-26 -5 -3 31c3,1 8,2 15,3 6,2 14,2 23,2 9,0 18,-2 26,-7 8,-5 15,-11 21,-19 6,-8 11,-17 16,-27 4,-9 8,-19 12,-30l119 -368 -39 0z"/>
  </g>
 </g>
</svg>
