<svg xmlns="http://www.w3.org/2000/svg" width="71.347" height="60.892" viewBox="0 0 71.347 60.892">
  <g id="Group_5" data-name="Group 5" transform="translate(-352.251 -380.634)">
    <path id="Path_24" data-name="Path 24" d="M654.827,385.2a4.568,4.568,0,1,1-4.568-4.568,4.568,4.568,0,0,1,4.568,4.568" transform="translate(-237.411 0)" fill="#1a1818" fill-rule="evenodd"/>
    <path id="Path_25" data-name="Path 25" d="M594.547,441.01a4.568,4.568,0,1,1-4.568-4.568,4.568,4.568,0,0,1,4.568,4.568" transform="translate(-188.64 -45.152)" fill="#6d767e" fill-rule="evenodd"/>
    <path id="Path_26" data-name="Path 26" d="M594.547,385.2a4.568,4.568,0,1,1-4.568-4.568,4.568,4.568,0,0,1,4.568,4.568" transform="translate(-188.64 0)" fill="#c5cdc9" fill-rule="evenodd"/>
    <path id="Path_27" data-name="Path 27" d="M408.938,505.546v3.374h-.1a7.793,7.793,0,0,0-7.216-4.153,12.121,12.121,0,0,0-4.721.9v-.724a9.393,9.393,0,0,0-2.076-.208c-3.79,0-6.8,1.817-8.1,5.243h-.1v-4.724H370.367l-3.789,6.437-3.79-6.437h-9.759l8.565,12.822L352.251,532.2h9.759l4.412-7.787,4.672,7.787h15.784V518.859a6.109,6.109,0,0,1,3.623-5.8,16.465,16.465,0,0,0-.719,4.892c0,7.579,3.686,13.393,11.836,13.393a8.531,8.531,0,0,0,7.164-3.945h.1v2.543c0,3.322-.415,6.281-4.62,6.281a7.008,7.008,0,0,1-3.218-.571,2.883,2.883,0,0,1-1.506-2.336h-8.825c1.038,7.216,6.956,8.617,13.237,8.617,12.614,0,13.445-8.306,13.445-12.718V505.546Zm-30.884,2.21v20.26L371.3,517.925ZM403.694,524.6c-3.634,0-5.087-3.167-5.087-6.333,0-3.322,1.246-6.748,5.139-6.748,3.945,0,5.295,3.374,5.295,6.8C409.041,521.69,407.432,524.6,403.694,524.6Z" transform="translate(0 -100.41)" fill="#1a1818" fill-rule="evenodd"/>
    <path id="Path_28" data-name="Path 28" d="M572.954,463.427c1.012-2.525-2.587-6.548-9.281-10.052,5.107,2.9,7.6,6.044,6.785,8.088-1.114,2.78-9,2.317-17.62-1.031s-14.7-8.318-13.584-11.1c.512-1.277,2.456-1.868,5.242-1.811-3.869-.289-6.62.362-7.282,2.012-1.275,3.184,5.69,8.874,15.56,12.711s18.9,4.364,20.18,1.182" transform="translate(-149.524 -54.063)" fill="#6d767e" fill-rule="evenodd"/>
    <path id="Path_29" data-name="Path 29" d="M588.462,458.833c.745-1.89-2.356-4.97-7.325-7.606,3.791,2.179,6.075,4.6,5.47,6.13-.821,2.08-6.671,1.721-13.064-.8s-10.911-6.257-10.09-8.338c.377-.956,1.818-1.395,3.883-1.347-2.869-.223-4.907.259-5.4,1.494-.94,2.383,4.234,6.659,11.558,9.55s14.022,3.3,14.963.921" transform="translate(-169.563 -53.545)" fill="#c5cdc9" fill-rule="evenodd"/>
    <path id="Path_30" data-name="Path 30" d="M654.827,441.01a4.568,4.568,0,1,1-4.568-4.568,4.568,4.568,0,0,1,4.568,4.568" transform="translate(-237.411 -45.152)" fill="#c10b1f" fill-rule="evenodd"/>
  </g>
</svg>
