<svg id="Layer_1" data-name="Layer 1" xmlns="http://www.w3.org/2000/svg" xmlns:xlink="http://www.w3.org/1999/xlink" viewBox="0 0 500 667"><defs><style>.cls-1{fill:url(#linear-gradient);}.cls-2{fill:url(#linear-gradient-2);}.cls-3{fill:#fff;}</style><linearGradient id="linear-gradient" x1="138.97" y1="229.53" x2="503.94" y2="571.29" gradientUnits="userSpaceOnUse"><stop offset="0" stop-color="#185c97"/><stop offset="1" stop-color="#0caddb"/></linearGradient><linearGradient id="linear-gradient-2" x1="82.99" y1="312.56" x2="413.58" y2="312.56" gradientUnits="userSpaceOnUse"><stop offset="0" stop-color="#fff"/><stop offset="1"/></linearGradient></defs><rect class="cls-1" width="500" height="667"/><path class="cls-2" d="M236.59,208.31v33.9h-55.8v175.5h-42V242.21H83v-33.9Z"/><path class="cls-2" d="M300,412.31q-17.57-7.5-27.75-21.6t-10.5-33.3h45q.9,12.9,9.15,20.4t22.64,7.5q14.7,0,23.11-7.05a23,23,0,0,0,8.39-18.45q0-9.3-5.69-15.3a40.11,40.11,0,0,0-14.25-9.45,236.15,236.15,0,0,0-23.56-7.65q-20.4-6-33.14-11.85a57.91,57.91,0,0,1-21.9-17.7q-9.17-11.85-9.15-31.65,0-18.6,9.3-32.4t26.1-21.15q16.79-7.35,38.4-7.35,32.4,0,52.64,15.75T411.19,265H365a24,24,0,0,0-9.16-17.85q-8.54-7-22.64-7-12.31,0-19.65,6.3t-7.35,18.3a18.88,18.88,0,0,0,5.55,14,42.11,42.11,0,0,0,13.8,9q8.23,3.45,23.25,7.95,20.38,6,33.29,12a59.91,59.91,0,0,1,22.21,18q9.29,12,9.29,31.5a59.33,59.33,0,0,1-8.69,31.2q-8.72,14.4-25.5,22.95t-39.9,8.55Q317.58,419.81,300,412.31Z"/><path class="cls-3" d="M236.59,208.31v33.9h-55.8v175.5h-42V242.21H83v-33.9Z"/><path class="cls-3" d="M300,412.31q-17.57-7.5-27.75-21.6t-10.5-33.3h45q.9,12.9,9.15,20.4t22.64,7.5q14.7,0,23.11-7.05a23,23,0,0,0,8.39-18.45q0-9.3-5.69-15.3a40.11,40.11,0,0,0-14.25-9.45,236.15,236.15,0,0,0-23.56-7.65q-20.4-6-33.14-11.85a57.91,57.91,0,0,1-21.9-17.7q-9.17-11.85-9.15-31.65,0-18.6,9.3-32.4t26.1-21.15q16.79-7.35,38.4-7.35,32.4,0,52.64,15.75T411.19,265H365a24,24,0,0,0-9.16-17.85q-8.54-7-22.64-7-12.31,0-19.65,6.3t-7.35,18.3a18.88,18.88,0,0,0,5.55,14,42.11,42.11,0,0,0,13.8,9q8.23,3.45,23.25,7.95,20.38,6,33.29,12a59.91,59.91,0,0,1,22.21,18q9.29,12,9.29,31.5a59.33,59.33,0,0,1-8.69,31.2q-8.72,14.4-25.5,22.95t-39.9,8.55Q317.58,419.81,300,412.31Z"/></svg>