<svg id="Layer_1" data-name="Layer 1" xmlns="http://www.w3.org/2000/svg" xmlns:xlink="http://www.w3.org/1999/xlink" viewBox="0 0 500 833"><defs><style>.cls-1{fill:none;}.cls-2{fill:url(#linear-gradient);}.cls-3{clip-path:url(#clip-path);}.cls-4{fill:#f59e1b;}.cls-5{opacity:0.12;fill:url(#linear-gradient-2);}.cls-10,.cls-5,.cls-7{isolation:isolate;}.cls-6{fill:#ef7d12;}.cls-10,.cls-7{opacity:0.2;}.cls-7{fill:url(#linear-gradient-3);}.cls-8{fill:#fec92b;}.cls-9{fill:#fff;fill-opacity:0.2;}.cls-10{fill:#a62817;}.cls-11{fill:#60646a;}</style><linearGradient id="linear-gradient" x1="436.71" y1="784.22" x2="210.34" y2="338.4" gradientUnits="userSpaceOnUse"><stop offset="0.01" stop-color="#fec92b"/><stop offset="0.41" stop-color="#f7a51f"/><stop offset="0.78" stop-color="#f28c17"/><stop offset="1" stop-color="#f08214"/></linearGradient><clipPath id="clip-path" transform="translate(0 0)"><path class="cls-1" d="M313.06,193.55a6.15,6.15,0,0,0-7-5.09,5.62,5.62,0,0,0-3.31,1.68L271,221.81l-24.81-47.38a6.09,6.09,0,0,0-8.22-2.59h0a7.17,7.17,0,0,0-2.6,2.59l-13.52,25.93-34.11-63.65a6.05,6.05,0,0,0-8.21-2.4h0a6.28,6.28,0,0,0-3.21,4.37l-33,211.08,88.2,49.71a18.45,18.45,0,0,0,17.74,0l89-49.51Z"/></clipPath><linearGradient id="linear-gradient-2" x1="237.22" y1="1674.91" x2="225.07" y2="1681.27" gradientTransform="matrix(1, 0, 0, -1, -56, 1952.49)" gradientUnits="userSpaceOnUse"><stop offset="0" stop-color="#a62817"/><stop offset="0.4" stop-color="#a62817" stop-opacity="0.5"/><stop offset="0.8" stop-color="#a62817" stop-opacity="0"/></linearGradient><linearGradient id="linear-gradient-3" x1="288.97" y1="1692.68" x2="283.53" y2="1698.12" gradientTransform="matrix(1, 0, 0, -1, -56, 1952.49)" gradientUnits="userSpaceOnUse"><stop offset="0" stop-color="#a62817" stop-opacity="0.8"/><stop offset="0.5" stop-color="#a62817" stop-opacity="0.21"/><stop offset="1" stop-color="#a62817" stop-opacity="0"/></linearGradient></defs><rect class="cls-2" width="500" height="833"/><polygon class="cls-1" points="96.51 133.57 378.5 133.57 381.13 409.96 99.14 409.96 96.51 133.57"/><g class="cls-3"><path class="cls-4" d="M143.27,349.77l33-211.08a6,6,0,0,1,6.81-5,6.46,6.46,0,0,1,4.43,3.15l34.11,63.7,13.52-25.92a6.1,6.1,0,0,1,8.23-2.6h0a7.1,7.1,0,0,1,2.59,2.6l92,175.13Z" transform="translate(0 0)"/><path class="cls-5" d="M256,135.14,94.52,121.36V413.77l48.75-64Z" transform="translate(0 0)"/><path class="cls-6" d="M257.35,267.56l-35.59-67.15L143.27,349.77Z" transform="translate(0 0)"/><path class="cls-7" d="M94.52,121.36H386.93V413.77H94.52Z" transform="translate(0 0)"/><path class="cls-8" d="M337.62,348.06,312.2,191.69a6.16,6.16,0,0,0-7-5.09,5.74,5.74,0,0,0-3.3,1.68L142.66,348.06l88.2,49.72a18.45,18.45,0,0,0,17.74,0Z" transform="translate(0 0)"/><path class="cls-9" d="M313.06,193.55a6.15,6.15,0,0,0-7-5.09,5.62,5.62,0,0,0-3.31,1.68L271,221.81l-24.81-47.38a6.09,6.09,0,0,0-8.22-2.59h0a7.17,7.17,0,0,0-2.6,2.59l-13.52,25.93-34.11-63.65a6.05,6.05,0,0,0-8.21-2.4h0a6.28,6.28,0,0,0-3.21,4.37l-33,211.08h0l.91.45L271.27,223.13,303,191.46a6,6,0,0,1,8.48-.16l.16.16a5.5,5.5,0,0,1,1.68,3.36l25,154.84h.3ZM143.57,349.46l32.74-209.24a5.94,5.94,0,0,1,6.69-5.1l.12,0a6.26,6.26,0,0,1,4.43,3.15L221.66,202l13.52-25.93a6,6,0,0,1,8.14-2.64l.1.05a7.07,7.07,0,0,1,2.59,2.59l24.35,46.31Z" transform="translate(0 0)"/><path class="cls-10" d="M249.21,397.76a18.49,18.49,0,0,1-17.79,0l-88-49.11V350l88.05,49.46a18.45,18.45,0,0,0,17.74,0l89-49.51V348.6Z" transform="translate(0 0)"/></g><path class="cls-11" d="M109.56,507.64h-8.07V445.15h36.56v7.79H109.56v20.48H135.3v7.52H109.61v26.7Zm42.35-53.56a5.83,5.83,0,1,1,1.62-3.95,5.61,5.61,0,0,1-1.62,4Zm0,53.56h-8.12V464.8h8.06Zm16.81,0h-8.06V464.8h7.79v7h.35a10.65,10.65,0,0,1,5.06-5.73,14.27,14.27,0,0,1,7.36-2.26,15.48,15.48,0,0,1,6,1l-3.08,7.51a12,12,0,0,0-4.3-.6,10.37,10.37,0,0,0-7.79,3.48,12.31,12.31,0,0,0-3.35,9.08Zm37.86,1.44a20.68,20.68,0,0,1-15.8-6.48,23.06,23.06,0,0,1-6.09-16.27,23.94,23.94,0,0,1,5.84-16.12,19.15,19.15,0,0,1,15.09-6.76,19.62,19.62,0,0,1,15.23,6.21,23.55,23.55,0,0,1,5.84,16.62v1.5H192.77a14.74,14.74,0,0,0,4.3,10.24,13,13,0,0,0,9.29,3.78q8.77,0,11.69-7.38l7.16,3a18.74,18.74,0,0,1-6.81,8.28,20.14,20.14,0,0,1-11.82,3.47Zm11.55-28a11.59,11.59,0,0,0-3.35-7,12.11,12.11,0,0,0-9.23-3.35,11.5,11.5,0,0,0-7.79,2.81,14,14,0,0,0-4.52,7.5Zm36.82,28a17.85,17.85,0,0,1-8.82-2.12,14.39,14.39,0,0,1-5.84-5.26h-.35v5.84h-7.79V445.15h8.06V464.8l-.35,5.95h.35a14.85,14.85,0,0,1,5.84-5.25,18.56,18.56,0,0,1,8.82-2.13,18.86,18.86,0,0,1,14.34,6.57,24.89,24.89,0,0,1,.07,32.54A18.68,18.68,0,0,1,255,509.16Zm-1.38-7.28a12.88,12.88,0,0,0,9.64-4.25,17.56,17.56,0,0,0,0-22.39,12.88,12.88,0,0,0-9.64-4.25,12.62,12.62,0,0,0-9.62,4.17,15.92,15.92,0,0,0-3.9,11.27,15.59,15.59,0,0,0,3.9,11.28A12.7,12.7,0,0,0,253.57,501.8Zm41.75,7.38a16.73,16.73,0,0,1-11.41-3.9,14,14,0,0,1,.82-21.38,21.9,21.9,0,0,1,13.4-3.9,23.34,23.34,0,0,1,11.68,2.6v-1.23a9.74,9.74,0,0,0-3.21-7.58,11.5,11.5,0,0,0-7.93-2.88,12.64,12.64,0,0,0-6.35,1.64,8.34,8.34,0,0,0-3.89,4.57L281.05,474a16.6,16.6,0,0,1,5.84-7.11,18.82,18.82,0,0,1,11.55-3.27,19.76,19.76,0,0,1,13.63,4.77A17.12,17.12,0,0,1,317.48,482v25.63h-7.79V501.8h-.37a15.79,15.79,0,0,1-14,7.36Zm1.31-7.38a13,13,0,0,0,9-3.68,11.53,11.53,0,0,0,4.09-8.83,15.91,15.91,0,0,0-10.14-2.82,13.23,13.23,0,0,0-8.83,2.53,7.79,7.79,0,0,0-3,5.84,5.68,5.68,0,0,0,2.72,5A11,11,0,0,0,296.63,501.8Zm43.17,7.38A19.18,19.18,0,0,1,328,505.69a20.41,20.41,0,0,1-6.84-8.74l7.17-2.94a11.8,11.8,0,0,0,11.69,8,10.54,10.54,0,0,0,6.15-1.64,5.17,5.17,0,0,0,2.32-4.46c0-2.8-2-4.71-5.85-5.66l-8.7-2.13a21,21,0,0,1-7.79-3.89,9.59,9.59,0,0,1-3.68-7.93,10.91,10.91,0,0,1,5-9.21,21.44,21.44,0,0,1,22.09-.95,14,14,0,0,1,6.35,7.38l-7,2.86c-1.57-3.76-4.85-5.67-9.73-5.67a11,11,0,0,0-6,1.5,4.54,4.54,0,0,0-2.47,4c0,2.45,1.94,4.09,5.66,5l8.47,2a16.66,16.66,0,0,1,9,4.77,11.62,11.62,0,0,1,2.86,7.79,11.94,11.94,0,0,1-4.71,9.62,18.29,18.29,0,0,1-12.19,3.82Zm42,0a20.69,20.69,0,0,1-15.8-6.49A23,23,0,0,1,360,486.33a23.94,23.94,0,0,1,5.84-16.12,19.15,19.15,0,0,1,15.09-6.76,19.62,19.62,0,0,1,15.23,6.21,23.52,23.52,0,0,1,5.78,16.56v1.5H368a14.74,14.74,0,0,0,4.3,10.24,13.06,13.06,0,0,0,9.29,3.84c5.75,0,9.74-2.46,11.69-7.38l7.18,3a18.7,18.7,0,0,1-6.85,8.28,20,20,0,0,1-11.8,3.47Zm11.53-28A11.43,11.43,0,0,0,390,474.2a12.11,12.11,0,0,0-9.24-3.35,11.66,11.66,0,0,0-7.79,2.81,14.13,14.13,0,0,0-4.49,7.49Z" transform="translate(0 0)"/></svg>