<svg id="Layer_1" data-name="Layer 1" xmlns="http://www.w3.org/2000/svg" xmlns:xlink="http://www.w3.org/1999/xlink" viewBox="0 0 501 836"><defs><style>.cls-1{stroke:#1d1d1b;stroke-miterlimit:10;fill:url(#linear-gradient);}.cls-2{fill:url(#linear-gradient-2);}.cls-3{stroke:#fff;fill:url(#linear-gradient-3);}</style><linearGradient id="linear-gradient" x1="154.68" y1="270.66" x2="524.03" y2="838.62" gradientUnits="userSpaceOnUse"><stop offset="0" stop-color="#c89af7"/><stop offset="0.15" stop-color="#c695f7"/><stop offset="0.33" stop-color="#c087f8"/><stop offset="0.52" stop-color="#b66ff9"/><stop offset="0.72" stop-color="#a94efb"/><stop offset="0.92" stop-color="#9724fd"/><stop offset="1" stop-color="#9013fe"/></linearGradient><linearGradient id="linear-gradient-2" x1="131.39" y1="1442.31" x2="521.94" y2="1132.29" gradientTransform="matrix(1, 0, 0, -1, -56, 1691.5)" gradientUnits="userSpaceOnUse"><stop offset="0" stop-color="#9013fe"/><stop offset="1" stop-color="#6610f2"/></linearGradient><linearGradient id="linear-gradient-3" x1="251.5" y1="1380.66" x2="338.8" y2="1233.02" gradientTransform="matrix(1, 0, 0, -1, -56, 1691.5)" gradientUnits="userSpaceOnUse"><stop offset="0" stop-color="#fff"/><stop offset="1" stop-color="#f1e5fc"/></linearGradient></defs><rect class="cls-1" x="0.5" y="0.5" width="500" height="835"/><path class="cls-2" d="M79.69,259.34c-.84-24.21,18-46.54,43.53-46.54H384.53c25.5,0,44.37,22.33,43.53,46.54-.82,23.26.24,53.39,7.82,78s20.44,40.22,41.45,42.23v22.69c-21,2-33.84,17.58-41.45,42.22s-8.64,54.7-7.82,78c.84,24.21-18,46.54-43.53,46.54H123.22c-25.51,0-44.37-22.33-43.53-46.54.81-23.27-.24-53.4-7.82-78S51.4,404.22,30.39,402.22V379.53c21-2,33.87-17.58,41.48-42.23S80.5,282.6,79.69,259.34Z" transform="translate(0.5 0.5)"/><path class="cls-3" d="M263.55,485.55c41.29,0,66.17-20.22,66.17-53.56,0-25.2-17.76-43.45-44.12-46.34v-1c19.37-3.15,34.57-21.13,34.57-41.22,0-28.62-22.6-47.26-57-47.26H185.68V485.55Zm-47.74-165.4h40.07c21.79,0,34.16,9.71,34.16,27.3,0,18.77-14.39,29.27-40.48,29.27H215.81Zm0,141.38V399.17h39.8c28.52,0,43.31,10.5,43.31,31s-14.39,31.38-41.56,31.38Z" transform="translate(0.5 0.5)"/></svg>