<svg id="Layer_1" data-name="Layer 1" xmlns="http://www.w3.org/2000/svg" xmlns:xlink="http://www.w3.org/1999/xlink" viewBox="0 0 500 833"><defs><style>.cls-1{fill:url(#linear-gradient);}.cls-2{fill:#75cbed;}</style><linearGradient id="linear-gradient" x1="562.49" y1="793.34" x2="90.13" y2="223.71" gradientUnits="userSpaceOnUse"><stop offset="0" stop-color="#74caec"/><stop offset="0.04" stop-color="#6dc2e6"/><stop offset="0.3" stop-color="#4896c4"/><stop offset="0.54" stop-color="#2e76ab"/><stop offset="0.73" stop-color="#1e639c"/><stop offset="0.87" stop-color="#185c97"/></linearGradient></defs><rect class="cls-1" width="500" height="833"/><path class="cls-2" d="M473.93,396.05c0-27.7-34.69-53.95-87.88-70.23,12.28-54.22,6.82-97.35-17.22-111.16a37.46,37.46,0,0,0-19.09-4.77v19a19.76,19.76,0,0,1,9.72,2.22c11.59,6.64,16.62,32,12.7,64.52-.94,8-2.47,16.45-4.35,25.06a414.16,414.16,0,0,0-54.13-9.29,414.61,414.61,0,0,0-35.46-42.62c27.79-25.83,53.88-40,71.6-40v-19c-23.44,0-54.12,16.7-85.15,45.68-31-28.81-61.71-45.34-85.15-45.34v19c17.64,0,43.81,14.06,71.6,39.72a402.06,402.06,0,0,0-35.21,42.53,398.35,398.35,0,0,0-54.21,9.38c-2-8.53-3.41-16.8-4.43-24.72-4-32.56.94-57.88,12.45-64.61,2.55-1.54,5.88-2.22,9.8-2.22v-19A38,38,0,0,0,160.25,215c-23.95,13.8-29.32,56.85-17,110.89-53,16.37-87.54,42.54-87.54,70.15s34.69,54,87.88,70.24c-12.27,54.21-6.82,97.34,17.22,111.15A37.46,37.46,0,0,0,180,582.21c23.44,0,54.13-16.7,85.15-45.68,31,28.81,61.72,45.34,85.16,45.34a38,38,0,0,0,19.26-4.77c23.95-13.81,29.32-56.85,17-110.9,52.85-16.28,87.37-42.53,87.37-70.15ZM363,339.2c-3.15,11-7.07,22.33-11.51,33.67-3.49-6.82-7.16-13.64-11.16-20.46s-8.1-13.47-12.28-20c12.11,1.79,23.79,4,34.95,6.74Zm-39,90.78c-6.65,11.5-13.47,22.42-20.54,32.56-12.7,1.11-25.57,1.7-38.53,1.7s-25.74-.59-38.36-1.62c-7.07-10.14-14-21-20.62-32.39-6.48-11.16-12.36-22.5-17.73-33.92,5.28-11.42,11.25-22.85,17.64-34,6.65-11.51,13.47-22.42,20.54-32.56,12.7-1.11,25.58-1.71,38.53-1.71s25.74.6,38.36,1.62c7.07,10.15,14,21,20.63,32.39,6.48,11.17,12.36,22.51,17.73,33.93-5.37,11.42-11.25,22.84-17.65,34Zm27.53-11.08c4.61,11.42,8.53,22.84,11.77,33.92-11.17,2.73-22.93,5-35.12,6.82,4.18-6.56,8.35-13.3,12.27-20.2s7.59-13.72,11.08-20.54Zm-86.43,91a352.3,352.3,0,0,1-23.69-27.28c7.67.34,15.51.6,23.44.6s15.94-.17,23.69-.6A334.56,334.56,0,0,1,265,509.85Zm-63.42-50.21c-12.1-1.79-23.78-4-34.94-6.73,3.15-11,7.07-22.34,11.5-33.67,3.5,6.82,7.16,13.64,11.17,20.45S197.42,453.16,201.59,459.64Zm63-177.38a350.72,350.72,0,0,1,23.69,27.28c-7.67-.35-15.51-.6-23.44-.6s-15.94.17-23.69.6A329.29,329.29,0,0,1,264.59,282.26Zm-63.08,50.2c-4.18,6.57-8.35,13.3-12.28,20.21s-7.58,13.63-11.08,20.45c-4.6-11.42-8.52-22.84-11.76-33.92,11.17-2.64,22.93-4.95,35.12-6.74ZM124.37,439.18c-30.18-12.87-49.7-29.74-49.7-43.13s19.52-30.34,49.7-43.13c7.33-3.15,15.34-6,23.61-8.61a408.72,408.72,0,0,0,19.18,51.91,405.17,405.17,0,0,0-18.93,51.66c-8.43-2.64-16.45-5.54-23.86-8.7ZM170.23,561c-11.6-6.65-16.63-32-12.7-64.53.93-8,2.47-16.45,4.34-25.06A410.83,410.83,0,0,0,216,480.69a415.9,415.9,0,0,0,35.46,42.62c-27.79,25.83-53.87,40-71.6,40a20.23,20.23,0,0,1-9.63-2.3ZM372.41,496c4,32.56-.93,57.88-12.44,64.61a19,19,0,0,1-9.8,2.22c-17.65,0-43.82-14.07-71.6-39.73a403.24,403.24,0,0,0,35.2-42.53A398.35,398.35,0,0,0,368,471.23,236.72,236.72,0,0,1,372.41,496Zm32.82-56.86c-7.33,3.16-15.34,6-23.61,8.61a409.85,409.85,0,0,0-19.18-51.91,403.42,403.42,0,0,0,18.92-51.65c8.44,2.64,16.45,5.54,24,8.69C435.49,365.79,455,382.67,455,396.05s-19.61,30.35-49.78,43.13Z"/><circle class="cls-2" cx="264.76" cy="396.05" r="38.95"/></svg>