<svg id="Layer_1" data-name="Layer 1" xmlns="http://www.w3.org/2000/svg" xmlns:xlink="http://www.w3.org/1999/xlink" viewBox="0 0 500 667"><defs><style>.cls-1{fill:url(#linear-gradient);}.cls-2{fill:#1d1d1b;}</style><linearGradient id="linear-gradient" x1="409.01" y1="610.89" x2="74.78" y2="27.82" gradientUnits="userSpaceOnUse"><stop offset="0" stop-color="#fdf7c6"/><stop offset="0.12" stop-color="#fbf29c"/><stop offset="0.26" stop-color="#f9ed72"/><stop offset="0.4" stop-color="#f7e950"/><stop offset="0.54" stop-color="#f6e635"/><stop offset="0.69" stop-color="#f5e422"/><stop offset="0.84" stop-color="#f4e217"/><stop offset="1" stop-color="#f4e213"/></linearGradient></defs><rect class="cls-1" width="500" height="667"/><path class="cls-2" d="M205.26,203.42v147q0,30.6-17.7,47.55t-47.4,16.95q-30,0-48.45-17.4t-18.45-48.6h42q.28,13.5,6.45,21t17.85,7.5q11.38,0,17.4-7.2t6-19.8v-147Z"/><path class="cls-2" d="M287,407.42q-17.55-7.5-27.75-21.6t-10.5-33.3h45q.9,12.9,9.15,20.4t22.65,7.5q14.7,0,23.1-7.05a22.93,22.93,0,0,0,8.4-18.45q0-9.3-5.7-15.3a39.94,39.94,0,0,0-14.25-9.45,235.82,235.82,0,0,0-23.55-7.65q-20.4-6-33.15-11.85A58.06,58.06,0,0,1,258.5,293q-9.15-11.85-9.15-31.65,0-18.6,9.3-32.4t26.1-21.15q16.8-7.35,38.4-7.35,32.4,0,52.65,15.75t22.35,44H352a24,24,0,0,0-9.15-17.85q-8.55-7.05-22.65-7.05-12.3,0-19.65,6.3t-7.35,18.3a18.92,18.92,0,0,0,5.55,13.95,42.32,42.32,0,0,0,13.8,9q8.25,3.45,23.25,8,20.4,6,33.3,12a59.8,59.8,0,0,1,22.2,18q9.3,12,9.3,31.5a59.25,59.25,0,0,1-8.7,31.2q-8.7,14.4-25.5,22.95t-39.9,8.55Q304.55,414.92,287,407.42Z"/></svg>