<svg id="Layer_1" data-name="Layer 1" xmlns="http://www.w3.org/2000/svg" xmlns:xlink="http://www.w3.org/1999/xlink" viewBox="0 0 500 667"><defs><style>.cls-1{fill:url(#linear-gradient);}.cls-2{fill:#071f2b;}</style><linearGradient id="linear-gradient" x1="97.32" y1="130.4" x2="397.77" y2="530.07" gradientUnits="userSpaceOnUse"><stop offset="0" stop-color="#95cba1"/><stop offset="0.23" stop-color="#68b785"/><stop offset="0.46" stop-color="#43a76d"/><stop offset="0.67" stop-color="#289c5d"/><stop offset="0.86" stop-color="#189453"/><stop offset="1" stop-color="#12924f"/></linearGradient></defs><rect class="cls-1" width="500" height="667"/><path class="cls-2" d="M49.78,285.37c-4.71-5.58-8.76-11.25-9.59-12.43a.2.2,0,0,0-.3,0c-.83,1.18-4.88,6.85-9.58,12.43-40.38,51.5,6.36,86.25,6.36,86.25l.39.26c.35,5.37,1.22,13.09,1.22,13.09h3.48s.87-7.68,1.22-13.09l.39-.3C43.42,371.62,90.16,336.87,49.78,285.37ZM40,370.84a19.39,19.39,0,0,1-2.66-2.71v-.08L39.89,312a.13.13,0,1,1,.26,0l2.53,56.08v.08A19.39,19.39,0,0,1,40,370.84Z"/><path class="cls-2" d="M127.49,359.39,108,311.82l0-.13H92.82v3.2h2.44a2.82,2.82,0,0,1,2,.83,2.77,2.77,0,0,1,.78,2l-.43,47.88a2.8,2.8,0,0,1-2.71,2.76l-2.49,0v3.16h14.76v-3.16l-1.53,0a2.8,2.8,0,0,1-2.71-2.76V320.45l21.23,51.08a1.93,1.93,0,0,0,1.79,1.22,2,2,0,0,0,1.79-1.22l20.74-49.94.31,44a2.8,2.8,0,0,1-2.75,2.8h-1.58v3.16h17.3v-3.16h-2.36a2.83,2.83,0,0,1-2.75-2.76l-.13-47.87a2.81,2.81,0,0,1,2.71-2.81l2.53,0v-3.2H147Z"/><path class="cls-2" d="M263.3,367.54a2.61,2.61,0,0,1-.75-1.93V342.09c0-4.47-1.31-8-3.94-10.49s-6.17-3.77-10.64-3.77a16.89,16.89,0,0,0-14.67,7.55.34.34,0,0,1-.3.13.21.21,0,0,1-.22-.22L231.16,329h-2.72l-7,4v2.19h1.8a2.92,2.92,0,0,1,2,.66,2.6,2.6,0,0,1,.75,2v27.69a2.55,2.55,0,0,1-2.68,2.67h-1.75v3.21h16v-3.21h-1.75a2.54,2.54,0,0,1-2.67-2.67V347.22a17.84,17.84,0,0,1,1.48-6.93,13.91,13.91,0,0,1,4.47-5.57,11.59,11.59,0,0,1,7.05-2.15c3.06,0,5.39,1,6.83,2.89a12.18,12.18,0,0,1,2.19,7.42v22.64a2.57,2.57,0,0,1-2.67,2.68h-1.75v3.2h16v-3.2h-1.75A2.19,2.19,0,0,1,263.3,367.54Z"/><path class="cls-2" d="M409.7,315.27A31.08,31.08,0,0,0,395,311.69H374.14v3.19h2a3,3,0,0,1,2.17,1,3.07,3.07,0,0,1,1,2.18v47a3.09,3.09,0,0,1-1,2.18,3,3,0,0,1-2.17,1h-2v3.19H395a31,31,0,0,0,14.72-3.59,26.8,26.8,0,0,0,10.64-10.3,34.16,34.16,0,0,0,0-31.89A27.18,27.18,0,0,0,409.7,315.27Zm6.21,26.26a30.68,30.68,0,0,1-3,14.1,20,20,0,0,1-7.77,8.48,21.16,21.16,0,0,1-10.6,2.75h-4.21a3,3,0,0,1-2.17-1,3.07,3.07,0,0,1-1-2.18V319.34a3,3,0,0,1,1-2.19,3.07,3.07,0,0,1,2.17-1h4.21a21.05,21.05,0,0,1,10.6,2.75,19.88,19.88,0,0,1,7.77,8.47A31.21,31.21,0,0,1,415.91,341.53Z"/><path class="cls-2" d="M473.57,344.71c-1.93-2.22-5.65-4.1-10-5.11,6-3,9.15-7.25,9.15-12.71a13.53,13.53,0,0,0-2.36-7.9,15.82,15.82,0,0,0-6.65-5.38,24.44,24.44,0,0,0-9.94-1.92h-23.6v3.19H432a3,3,0,0,1,2.19,1,3,3,0,0,1,1,2.18v47a3.49,3.49,0,0,1-3.2,3.19H430v3.19h25.62a29.07,29.07,0,0,0,10.81-2,17.52,17.52,0,0,0,7.79-5.77,14.8,14.8,0,0,0,2.89-9.21A14.63,14.63,0,0,0,473.57,344.71ZM444.19,365.9a3.11,3.11,0,0,1-1-2.19V342.62h12.17q6.43,0,9.85,3.27a11.31,11.31,0,0,1,3.41,8.52,13.24,13.24,0,0,1-1.49,6,11.46,11.46,0,0,1-4.51,4.63,14,14,0,0,1-7.26,1.79h-9A3.13,3.13,0,0,1,444.19,365.9Zm-1-27.78V319.38a3,3,0,0,1,1-2.18,3.06,3.06,0,0,1,2.19-1h5.77c4.16,0,7.23,1.05,9.16,3.06a11.07,11.07,0,0,1,2.88,7.9,11.6,11.6,0,0,1-2.71,8c-1.8,2-4.51,3-8.1,3Z"/><path class="cls-2" d="M202.29,330.62a22.88,22.88,0,0,0-11.12-2.79,22.24,22.24,0,0,0-11.12,2.79,20.41,20.41,0,0,0-8,7.83,24.31,24.31,0,0,0,0,23.25,20.48,20.48,0,0,0,8,7.83,22.88,22.88,0,0,0,11.12,2.79,22.34,22.34,0,0,0,11.12-2.79,20.48,20.48,0,0,0,8-7.83,24.38,24.38,0,0,0,0-23.25A20.41,20.41,0,0,0,202.29,330.62Zm3.22,19.45c0,5.36-1.31,9.71-3.91,12.85a13.85,13.85,0,0,1-20.86,0c-2.6-3.14-3.91-7.49-3.91-12.85s1.31-9.7,3.91-12.84a13.85,13.85,0,0,1,20.86,0C204.2,340.37,205.51,344.72,205.51,350.07Z"/><path class="cls-2" d="M356.25,330.62a22.88,22.88,0,0,0-11.12-2.79A22.24,22.24,0,0,0,334,330.62a20.55,20.55,0,0,0-7.95,7.83,24.38,24.38,0,0,0,0,23.25,20.62,20.62,0,0,0,7.95,7.83,22.91,22.91,0,0,0,11.12,2.79,22.34,22.34,0,0,0,11.12-2.79,20.48,20.48,0,0,0,7.95-7.83,24.31,24.31,0,0,0,0-23.25A20.68,20.68,0,0,0,356.25,330.62Zm3.22,19.45c0,5.36-1.3,9.71-3.91,12.85a13.83,13.83,0,0,1-20.85,0c-2.61-3.14-3.91-7.49-3.91-12.85s1.3-9.7,3.91-12.84a13.83,13.83,0,0,1,20.85,0C358.12,340.37,359.47,344.72,359.47,350.07Z"/><path class="cls-2" d="M294.16,327.83a20.58,20.58,0,0,0-9.58,2.23,17,17,0,0,0-6.78,6.08,15.42,15.42,0,0,0-2.45,8.4,14.76,14.76,0,0,0,1.88,7.43,17,17,0,0,0,5,5.42L276,365.88a3.43,3.43,0,0,0,2.76,5.46h1.79a13.06,13.06,0,0,0-4.11,4.24,11.19,11.19,0,0,0-1.71,5.86,10.84,10.84,0,0,0,4.95,9.19c3.23,2.32,7.78,3.5,13.52,3.5a32.6,32.6,0,0,0,11.24-1.93,19.76,19.76,0,0,0,8.44-5.6,13,13,0,0,0,3.24-8.83c0-3.59-1.31-6.12-4.37-8.57-2.63-2.06-6.74-3.15-11.86-3.15h-17.5a.19.19,0,0,1-.09,0s0-.09,0-.13l4.55-6.13a16.33,16.33,0,0,0,3.37,1.14,17.44,17.44,0,0,0,3.55.31,21.42,21.42,0,0,0,9.88-2.23,17.5,17.5,0,0,0,6.87-6.08,15.14,15.14,0,0,0,2.5-8.4c0-3.23-1.58-9.14-5.87-12.16,0,0,.05,0,.05,0l9.4,1V329H301.51A24.47,24.47,0,0,0,294.16,327.83Zm5.25,27.38a11.33,11.33,0,0,1-5.25,1.35,11,11,0,0,1-7.7-3.1c-2.19-2.06-3.28-5.08-3.28-8.92s1.09-6.87,3.28-8.93a11,11,0,0,1,7.7-3.1,10.82,10.82,0,0,1,9.37,5.38,13,13,0,0,1,1.61,6.65,12.4,12.4,0,0,1-1.61,6.64A10.34,10.34,0,0,1,299.41,355.21ZM287.56,371.3h11.85c3.28,0,5.38.65,6.78,2.05a7.49,7.49,0,0,1,2.1,5.47,9.38,9.38,0,0,1-3.8,7.78c-2.54,2-5.95,3-10.15,3a15.38,15.38,0,0,1-9-2.41,8.14,8.14,0,0,1-3.37-7,9.38,9.38,0,0,1,1.57-5.29A10,10,0,0,1,287.56,371.3Z"/><path class="cls-2" d="M486,370.72a5.32,5.32,0,0,1-2.77-4.73,5.48,5.48,0,0,1,.73-2.74,5,5,0,0,1,2-2,6.13,6.13,0,0,1,5.8,0,5.38,5.38,0,0,1,2.77,4.72,5.49,5.49,0,0,1-.74,2.75,5.09,5.09,0,0,1-2,2,6,6,0,0,1-2.9.73A5.64,5.64,0,0,1,486,370.72Zm5.32-.61a4.44,4.44,0,0,0,1.69-1.67,5.21,5.21,0,0,0,0-4.89,4,4,0,0,0-1.69-1.68,5.2,5.2,0,0,0-4.85,0,4.54,4.54,0,0,0-1.69,1.68,5.28,5.28,0,0,0,0,4.89,4,4,0,0,0,1.69,1.67,5.06,5.06,0,0,0,2.43.61A4.91,4.91,0,0,0,491.27,370.11Zm-4.76-1.5v-.38l.09-.05h.26a.33.33,0,0,0,.21-.08.24.24,0,0,0,.09-.22v-4a.32.32,0,0,0-.09-.21.23.23,0,0,0-.21-.09h-.26l-.09,0v-.39l.09,0h2.25a2.34,2.34,0,0,1,1.51.43,1.39,1.39,0,0,1,.56,1.2,1.3,1.3,0,0,1-.43,1,1.69,1.69,0,0,1-1.08.51l.52.18,1,1.58a.35.35,0,0,0,.31.18h.25l0,0v.39l0,0h-1.33l-.09,0-1.39-2.32h-.34v1.54a.36.36,0,0,0,.08.22.26.26,0,0,0,.22.08h.26l.09.05v.38l-.09.05H486.6Zm2.21-2.83a1,1,0,0,0,.82-.3,1.18,1.18,0,0,0,.3-.82,1.23,1.23,0,0,0-.26-.81.87.87,0,0,0-.73-.3h-.18a.31.31,0,0,0-.21.08.24.24,0,0,0-.09.22v1.93Z"/></svg>