<?xml version="1.0" encoding="utf-8"?>
<svg version="1.1" id="Layer_1" xmlns="http://www.w3.org/2000/svg" xmlns:xlink="http://www.w3.org/1999/xlink" x="0px" y="0px"
	 viewBox="0 0 320 60" style="enable-background:new 0 0 320 60;" xml:space="preserve">
<style type="text/css">
	.st0{fill:url(#SVGID_1_);}
	.st1{fill:url(#SVGID_2_);}
	.st2{fill:url(#SVGID_3_);}
	.st3{fill:#001A4B;}
	.st4{fill:#7AAEDD;}
</style>
<g>
	
		<linearGradient id="SVGID_1_" gradientUnits="userSpaceOnUse" x1="140.3215" y1="462.9744" x2="222.0971" y2="415.7613" gradientTransform="matrix(-1 0 0 1 235.0588 -413.2941)">
		<stop  offset="0" style="stop-color:#4EC5E0"/>
		<stop  offset="1" style="stop-color:#3777BB"/>
	</linearGradient>
	<path class="st0" d="M97,14.3c4.2,4.2,4.2,11,0,15.2L74.7,51.8c-4.2,4.2-11,4.2-15.2,0l-6.9-6.9l-6.9,6.9c-4.2,4.2-11,4.2-15.2,0
		L8.2,29.6c-4.2-4.2-4.2-11,0-15.2l6.2-6.2c4.2-4.2,11-4.2,15.2,0l7.7,7.7L45,8.2C49.2,4,56,4,60.2,8.2l7.7,7.7l7.7-7.7
		c4.2-4.2,11-4.2,15.2,0L97,14.3z"/>
	
		<linearGradient id="SVGID_2_" gradientUnits="userSpaceOnUse" x1="6765.6123" y1="-4356.0938" x2="6775.4946" y2="-4356.0938" gradientTransform="matrix(0.7071 0.7071 -0.7071 0.7071 -7844.9785 -1684.6907)">
		<stop  offset="0" style="stop-color:#0071BB;stop-opacity:0"/>
		<stop  offset="1" style="stop-color:#0071BB"/>
	</linearGradient>
	<path class="st1" d="M37.3,15.9L23.5,29.6c-4.2,4.2-11,4.2-15.2,0l-0.1-0.1c-4.2-4.2-4.2-11,0-15.2l6.2-6.2c4.2-4.2,11-4.2,15.2,0
		L37.3,15.9z"/>
	
		<linearGradient id="SVGID_3_" gradientUnits="userSpaceOnUse" x1="975.3436" y1="1434.2899" x2="985.2258" y2="1434.2899" gradientTransform="matrix(-0.7071 0.7071 0.7071 0.7071 -238.482 -1684.6907)">
		<stop  offset="0" style="stop-color:#0071BB;stop-opacity:0"/>
		<stop  offset="1" style="stop-color:#0071BB"/>
	</linearGradient>
	<path class="st2" d="M67.9,15.9l13.8,13.8c4.2,4.2,11,4.2,15.2,0l0.1-0.1c4.2-4.2,4.2-11,0-15.2l-6.2-6.2c-4.2-4.2-11-4.2-15.2,0
		L67.9,15.9z"/>
</g>
<g>
	<g>
		<path class="st3" d="M124.7,24l4.3-14h5.7l4.3,14l4.8-14h5.9l-8.5,24.3h-4l-5.3-16.9l-5.3,16.9h-4L114,10.1h5.9L124.7,24z"/>
		<path class="st3" d="M169.3,10.1h5.4v24.3h-5.4v-9.5h-9.7v9.5h-5.4V10.1h5.4v10.1h9.7V10.1z"/>
		<path class="st3" d="M182.4,10.1h5.4v24.3h-5.4V10.1z"/>
		<path class="st3" d="M205.8,14.7v19.6h-5.4V14.7h-6.9v-4.7h19.2v4.7H205.8z"/>
		<path class="st3" d="M235.9,10.1v4.8h-12.1v5h10.9v4.6h-10.9v5h12.5v4.8h-17.9V10.1H235.9z"/>
		<path class="st3" d="M257.9,10.1h5.4v24.3h-5.4v-9.5h-9.7v9.5h-5.4V10.1h5.4v10.1h9.7V10.1z"/>
		<path class="st3" d="M288.3,34.3l-2.3-5.2h-10.2l-2.3,5.2h-5.8l10.5-24.3h5.2l10.5,24.3H288.3z M281,17.3l-3.1,7h6.1L281,17.3z"/>
		<path class="st3" d="M307.1,14.7v19.6h-5.4V14.7h-6.9v-4.7H314v4.7H307.1z"/>
	</g>
</g>
<g>
	<path class="st4" d="M139.9,42.4v9.4h-2.6v-9.4H134v-2.3h9.2v2.3H139.9z"/>
	<path class="st4" d="M154.4,40.1v2.3h-5.8v2.4h5.2v2.2h-5.2v2.4h6v2.3H146V40.1H154.4z"/>
	<path class="st4" d="M163.1,49.5c1.3,0,2.3-0.5,3.1-1.5l1.7,1.7c-1.3,1.5-2.9,2.2-4.7,2.2c-1.8,0-3.3-0.6-4.4-1.7
		c-1.2-1.1-1.7-2.6-1.7-4.3c0-1.7,0.6-3.2,1.8-4.3c1.2-1.2,2.6-1.7,4.4-1.7c1.9,0,3.5,0.7,4.8,2.2l-1.6,1.8c-0.8-1-1.8-1.5-3.1-1.5
		c-1,0-1.8,0.3-2.5,1c-0.7,0.6-1,1.5-1,2.6s0.3,2,1,2.6C161.3,49.2,162.1,49.5,163.1,49.5z"/>
	<path class="st4" d="M178,40.1h2.6v11.7H178v-4.6h-4.6v4.6h-2.6V40.1h2.6V45h4.6V40.1z"/>
	<path class="st4" d="M192.3,42.5c-0.3,0.2-0.4,0.5-0.4,0.8c0,0.3,0.2,0.6,0.5,0.8c0.3,0.2,1,0.4,2.1,0.7c1.1,0.3,2,0.7,2.6,1.2
		c0.6,0.5,0.9,1.3,0.9,2.4c0,1-0.4,1.9-1.2,2.5c-0.8,0.7-1.8,1-3.1,1c-1.8,0-3.5-0.7-5-2.1l1.6-1.9c1.3,1.1,2.4,1.7,3.5,1.7
		c0.5,0,0.9-0.1,1.1-0.3c0.3-0.2,0.4-0.5,0.4-0.8s-0.1-0.6-0.4-0.8c-0.3-0.2-0.9-0.4-1.7-0.6c-1.4-0.3-2.4-0.7-3-1.3
		c-0.6-0.5-0.9-1.3-0.9-2.4c0-1.1,0.4-2,1.2-2.6c0.8-0.6,1.8-0.9,3-0.9c0.8,0,1.6,0.1,2.3,0.4c0.8,0.3,1.5,0.6,2,1.1l-1.3,1.9
		c-1-0.8-2.1-1.2-3.1-1.2C192.9,42.2,192.6,42.3,192.3,42.5z"/>
	<path class="st4" d="M210.9,50.2c-1.2,1.2-2.6,1.7-4.4,1.7c-1.7,0-3.2-0.6-4.4-1.7c-1.2-1.2-1.8-2.6-1.8-4.3c0-1.7,0.6-3.1,1.8-4.3
		c1.2-1.2,2.6-1.7,4.4-1.7c1.7,0,3.2,0.6,4.4,1.7c1.2,1.2,1.8,2.6,1.8,4.3C212.7,47.6,212.1,49,210.9,50.2z M210,45.9
		c0-1-0.3-1.9-1-2.7c-0.7-0.7-1.5-1.1-2.5-1.1c-1,0-1.8,0.4-2.5,1.1c-0.7,0.7-1,1.6-1,2.7c0,1,0.3,1.9,1,2.7
		c0.7,0.7,1.5,1.1,2.5,1.1c1,0,1.8-0.4,2.5-1.1C209.7,47.8,210,46.9,210,45.9z"/>
	<path class="st4" d="M215.7,51.8V40.1h2.6v9.4h5v2.3H215.7z"/>
	<path class="st4" d="M228.9,48.8c0.4,0.5,1,0.8,1.8,0.8c0.7,0,1.3-0.3,1.7-0.8c0.4-0.5,0.6-1.3,0.6-2.2v-6.4h2.6v6.5
		c0,1.7-0.5,3-1.4,3.9c-0.9,0.9-2.1,1.4-3.6,1.4c-1.5,0-2.7-0.5-3.6-1.4c-0.9-0.9-1.4-2.2-1.4-3.9v-6.5h2.6v6.4
		C228.2,47.5,228.4,48.3,228.9,48.8z"/>
	<path class="st4" d="M244.1,42.4v9.4h-2.6v-9.4h-3.3v-2.3h9.2v2.3H244.1z"/>
	<path class="st4" d="M250.1,40.1h2.6v11.7h-2.6V40.1z"/>
	<path class="st4" d="M266.3,50.2c-1.2,1.2-2.6,1.7-4.4,1.7c-1.7,0-3.2-0.6-4.4-1.7c-1.2-1.2-1.8-2.6-1.8-4.3c0-1.7,0.6-3.1,1.8-4.3
		c1.2-1.2,2.6-1.7,4.4-1.7c1.7,0,3.2,0.6,4.4,1.7c1.2,1.2,1.8,2.6,1.8,4.3C268,47.6,267.5,49,266.3,50.2z M265.4,45.9
		c0-1-0.3-1.9-1-2.7c-0.7-0.7-1.5-1.1-2.5-1.1c-1,0-1.8,0.4-2.5,1.1c-0.7,0.7-1,1.6-1,2.7c0,1,0.3,1.9,1,2.7
		c0.7,0.7,1.5,1.1,2.5,1.1c1,0,1.8-0.4,2.5-1.1C265.1,47.8,265.4,46.9,265.4,45.9z"/>
	<path class="st4" d="M279.3,40.1h2.6v11.7h-2.6l-5.6-7.3v7.3h-2.6V40.1h2.4l5.7,7.5V40.1z"/>
	<path class="st4" d="M288.3,42.5c-0.3,0.2-0.4,0.5-0.4,0.8c0,0.3,0.2,0.6,0.5,0.8c0.3,0.2,1,0.4,2.1,0.7c1.1,0.3,2,0.7,2.6,1.2
		c0.6,0.5,0.9,1.3,0.9,2.4c0,1-0.4,1.9-1.2,2.5c-0.8,0.7-1.8,1-3.1,1c-1.8,0-3.5-0.7-5-2.1l1.6-1.9c1.3,1.1,2.4,1.7,3.5,1.7
		c0.5,0,0.9-0.1,1.1-0.3c0.3-0.2,0.4-0.5,0.4-0.8s-0.1-0.6-0.4-0.8c-0.3-0.2-0.9-0.4-1.7-0.6c-1.4-0.3-2.4-0.7-3-1.3
		c-0.6-0.5-0.9-1.3-0.9-2.4c0-1.1,0.4-2,1.2-2.6c0.8-0.6,1.8-0.9,3-0.9c0.8,0,1.6,0.1,2.3,0.4c0.8,0.3,1.5,0.6,2,1.1l-1.3,1.9
		c-1-0.8-2.1-1.2-3.1-1.2C288.9,42.2,288.5,42.3,288.3,42.5z"/>
</g>
</svg>
